<svg xmlns="http://www.w3.org/2000/svg" viewBox="0 0 220 70" fill="none">
  <!-- 子猫の足あと（がじゅまる=由来の子猫が歩いた跡。フッター見守り猫・木と子猫の挿絵と連動） -->
  <g fill="#9C5026">
    <g opacity="0.38">
      <ellipse cx="18" cy="52" rx="4.6" ry="3.8"/>
      <circle cx="12" cy="45" r="1.9"/><circle cx="18" cy="43" r="1.9"/><circle cx="24" cy="45" r="1.9"/>
    </g>
    <g opacity="0.34">
      <ellipse cx="58" cy="30" rx="4.6" ry="3.8"/>
      <circle cx="52" cy="23" r="1.9"/><circle cx="58" cy="21" r="1.9"/><circle cx="64" cy="23" r="1.9"/>
    </g>
    <g opacity="0.30">
      <ellipse cx="102" cy="50" rx="4.6" ry="3.8"/>
      <circle cx="96" cy="43" r="1.9"/><circle cx="102" cy="41" r="1.9"/><circle cx="108" cy="43" r="1.9"/>
    </g>
    <g opacity="0.26">
      <ellipse cx="146" cy="28" rx="4.6" ry="3.8"/>
      <circle cx="140" cy="21" r="1.9"/><circle cx="146" cy="19" r="1.9"/><circle cx="152" cy="21" r="1.9"/>
    </g>
    <g opacity="0.22">
      <ellipse cx="192" cy="46" rx="4.6" ry="3.8"/>
      <circle cx="186" cy="39" r="1.9"/><circle cx="192" cy="37" r="1.9"/><circle cx="198" cy="39" r="1.9"/>
    </g>
  </g>
</svg>
