<svg xmlns="http://www.w3.org/2000/svg" viewBox="0 0 380 340" fill="none">
  <!-- スタイル: サイト共通の線画言語（線 #9C5026 / 塗り #F7E8DB・#FBF6F0 / 点目+頬） -->
  <!-- 地面 -->
  <path d="M44,318 C130,311 252,311 340,318" stroke="#9C5026" stroke-width="2" stroke-linecap="round" opacity="0.55"/>
  <!-- 樹冠（ガジュマルの雲形・一筆の有機パス） -->
  <path d="M100,150 C86,130 100,106 124,104 C120,80 144,64 168,72 C174,46 208,38 226,56 C248,38 284,46 290,72 C316,68 334,92 324,114 C342,132 330,156 304,158 C296,174 272,182 254,174 C234,186 196,186 178,174 C156,184 124,178 118,162 C106,160 98,156 100,150 Z" fill="#F7E8DB" stroke="#9C5026" stroke-width="3" stroke-linejoin="round"/>
  <path d="M150,124 C162,114 178,112 188,118" stroke="#9C5026" stroke-width="2" stroke-linecap="round" opacity="0.5"/>
  <path d="M214,92 C226,84 242,86 250,94" stroke="#9C5026" stroke-width="2" stroke-linecap="round" opacity="0.5"/>
  <path d="M262,134 C272,126 286,126 294,132" stroke="#9C5026" stroke-width="2" stroke-linecap="round" opacity="0.5"/>
  <!-- 幹（根元へ広がる）＋幹の縒り -->
  <path d="M198,158 C196,206 188,256 172,308 C170,314 172,318 178,318 L258,318 C264,318 266,314 264,308 C250,256 244,206 242,158 C228,168 212,168 198,158 Z" fill="#FBF6F0" stroke="#9C5026" stroke-width="3" stroke-linejoin="round"/>
  <path d="M216,172 C212,222 208,262 198,308" stroke="#9C5026" stroke-width="2" stroke-linecap="round" opacity="0.45"/>
  <path d="M226,174 C224,226 226,268 232,310" stroke="#9C5026" stroke-width="2" stroke-linecap="round" opacity="0.45"/>
  <!-- 気根 -->
  <path d="M148,158 C145,198 149,244 145,288" stroke="#9C5026" stroke-width="2.2" stroke-linecap="round"/>
  <path d="M166,166 C164,210 168,266 165,316" stroke="#9C5026" stroke-width="2.2" stroke-linecap="round"/>
  <path d="M288,160 C291,200 287,244 290,288" stroke="#9C5026" stroke-width="2.2" stroke-linecap="round"/>
  <path d="M302,152 C305,198 301,262 304,316" stroke="#9C5026" stroke-width="2.2" stroke-linecap="round"/>
  <path d="M260,172 C261,204 258,230 260,254" stroke="#9C5026" stroke-width="2" stroke-linecap="round"/>
  <!-- 子猫（木陰で見上げる・点目+頬） -->
  <path d="M158,312 C172,309 175,296 165,291" stroke="#9C5026" stroke-width="4.5" stroke-linecap="round"/>
  <path d="M136,280 C128,290 124,302 125,314 C125,317 127,318 130,318 L153,318 C156,318 158,317 158,314 C158,302 154,290 148,280 Z" fill="#FBF6F0" stroke="#9C5026" stroke-width="2.5" stroke-linejoin="round"/>
  <path d="M145,318 L145,307" stroke="#9C5026" stroke-width="1.8" stroke-linecap="round" opacity="0.5"/>
  <path d="M133,266 L129,253 L140,258 Z" fill="#FBF6F0" stroke="#9C5026" stroke-width="2.5" stroke-linejoin="round"/>
  <path d="M146,259 L152,250 L155,261 Z" fill="#FBF6F0" stroke="#9C5026" stroke-width="2.5" stroke-linejoin="round"/>
  <circle cx="142" cy="271" r="10.5" fill="#FBF6F0" stroke="#9C5026" stroke-width="2.5"/>
  <circle cx="140.5" cy="268.5" r="1.4" fill="#9C5026"/>
  <circle cx="147.5" cy="267" r="1.4" fill="#9C5026"/>
  <ellipse cx="136.5" cy="273.5" rx="2.4" ry="1.6" fill="#F0DAC8"/>
  <ellipse cx="150.5" cy="271.5" rx="2.4" ry="1.6" fill="#F0DAC8"/>
  <path d="M143.5,272.5 C144.2,273.6 145.4,273.6 146.1,272.7" stroke="#9C5026" stroke-width="1" stroke-linecap="round" opacity="0.6"/>
  <!-- 舞う葉（葉脈つき） -->
  <g transform="rotate(22 168 236)">
    <path d="M168,243 C165.4,239 165.4,233.5 168,229.5 C170.6,233.5 170.6,239 168,243 Z" fill="#F7E8DB" stroke="#9C5026" stroke-width="1.6"/>
    <path d="M168,241 L168,231.5" stroke="#9C5026" stroke-width="1"/>
  </g>
  <g transform="rotate(-24 126 208)">
    <path d="M126,214 C124,211 124,206.5 126,203.5 C128,206.5 128,211 126,214 Z" fill="#F7E8DB" stroke="#9C5026" stroke-width="1.4"/>
    <path d="M126,212.5 L126,205" stroke="#9C5026" stroke-width="0.9"/>
  </g>
  <!-- 足あと -->
  <circle cx="102" cy="300" r="2.2" fill="#9C5026" opacity="0.3"/>
  <circle cx="107" cy="295.5" r="1.5" fill="#9C5026" opacity="0.3"/>
  <circle cx="112" cy="300" r="1.5" fill="#9C5026" opacity="0.28"/>
  <circle cx="88" cy="311" r="2.2" fill="#9C5026" opacity="0.24"/>
  <circle cx="93" cy="306.5" r="1.5" fill="#9C5026" opacity="0.24"/>
</svg>
