<svg xmlns="http://www.w3.org/2000/svg" viewBox="0 0 160 160" fill="none">
  <circle cx="80" cy="80" r="74" fill="#F7E8DB"/>
  <g stroke="#C56A38" stroke-width="5" stroke-linecap="round" stroke-linejoin="round" fill="none">
    <path d="M55 120h50"/>
    <path d="M70 120c27.5-12.5 4-32 15-50"/>
    <path d="M67.5 67c5.5 4 9 11 11.5 18.5-10 2-17.5 2-24-1.5-6-3-11.5-9.5-15-21 14-2.5 22 0 27.5 4z"/>
    <path d="M90.5 50a35 35 0 0 0-5.5 20c9.5-.5 16.5-3 21.5-7 5-5 8-11.5 8.5-23-13.5.5-20 5-24.5 10z"/>
  </g>
</svg>
