<svg xmlns="http://www.w3.org/2000/svg" viewBox="0 0 160 160" fill="none">
  <circle cx="80" cy="80" r="74" fill="#F7E8DB"/>
  <g stroke="#C56A38" stroke-width="5" stroke-linecap="round" stroke-linejoin="round" fill="none">
    <path d="M65 80h.05"/>
    <path d="M95 80h.05"/>
    <path d="M70 100c2.5 1.5 6 2.5 10 2.5s7.5-1 10-2.5"/>
    <path d="M115 51.5a45 45 0 0 1 9 19.5 10 10 0 0 1 0 18 45 45 0 0 1-88 0 10 10 0 0 1 0-18A45 45 0 0 1 80 35c10 0 17.5 5.5 17.5 12.5s-4.5 12.5-10 12.5c-4 0-7.5-2-7.5-5"/>
  </g>
</svg>
