<svg xmlns="http://www.w3.org/2000/svg" viewBox="0 0 200 220" fill="none">
  <!-- 主枝 -->
  <path d="M150 18 C120 60 108 110 112 200" stroke="#B07A4E" stroke-width="2.4" stroke-linecap="round"/>
  <!-- 気根（ガジュマルの特徴） -->
  <path d="M128 70 C134 110 126 150 132 198" stroke="#C49A74" stroke-width="1.6" stroke-linecap="round"/>
  <path d="M96 96 C92 130 98 160 94 200" stroke="#C49A74" stroke-width="1.3" stroke-linecap="round"/>
  <!-- 葉（濃） -->
  <g fill="#C56A38">
    <path d="M150 18 C168 10 188 16 196 34 C176 40 158 34 150 18 Z"/>
    <path d="M126 64 C146 56 166 62 174 80 C154 86 136 80 126 64 Z"/>
    <path d="M116 116 C136 108 156 114 164 132 C144 138 126 132 116 116 Z"/>
    <path d="M112 168 C132 160 152 166 160 184 C140 190 122 184 112 168 Z"/>
  </g>
  <!-- 葉（淡） -->
  <g fill="#E0A06E">
    <path d="M134 40 C116 30 96 34 86 50 C106 60 126 56 134 40 Z"/>
    <path d="M122 90 C104 80 84 84 74 100 C94 110 114 106 122 90 Z"/>
    <path d="M114 142 C96 132 76 136 66 152 C86 162 106 158 114 142 Z"/>
  </g>
</svg>
