<svg xmlns="http://www.w3.org/2000/svg" viewBox="0 0 160 160" fill="none">
  <circle cx="80" cy="80" r="74" fill="#F7E8DB"/>
  <g stroke="#C56A38" stroke-width="5" stroke-linecap="round" stroke-linejoin="round" fill="none">
    <path d="M110 75V50a10 10 0 0 0-20 0v25"/>
    <path d="M90 70V40a10 10 0 0 0-20 0v10"/>
    <path d="M70 72.5V50a10 10 0 0 0-20 0v40"/>
    <path d="M110 60a10 10 0 1 1 20 0v30a40 40 0 0 1-40 40h-10c-14 0-22.5-4.3-29.95-11.7l-18-18a10 10 0 0 1 14.15-14.1L55 95"/>
  </g>
</svg>
