<svg xmlns="http://www.w3.org/2000/svg" viewBox="0 0 269.4 1463.6" width="600" height="3259">
<rect x="0" y="0" width="269.4" height="1463.6" rx="40" fill="#FFFDF9"/><rect x="6" y="6" width="257.4" height="1451.6" rx="36" fill="none" stroke="#EADFCF" stroke-width="3"/><g transform="translate(66.000,70.000) scale(1.15674) translate(-44.667,-63.524) matrix(1.0730089,0.0,0.0,1.0125371,-3.5227983,26.142947)" fill="#C56A38"><path d="m 117.97965,197.87039 c -1.35431,-0.49122 -1.88344,-1.01411 -2.51733,-2.48762 -0.9272,-2.15533 -1.17736,-6.00443 -0.98313,-15.12684 0.24618,-11.56174 -0.22472,-17.66534 -1.96982,-25.53229 -2.18983,-9.87175 -6.14609,-16.27187 -10.05852,-16.27187 -3.736892,0 -7.452034,6.26874 -9.094632,15.34583 -1.328389,7.34075 -1.572286,13.62449 -1.222071,31.48542 0.139365,7.10763 -0.02976,8.8178 -1.075759,10.87765 -0.946654,1.86422 -3.74596,2.34819 -6.235599,1.07807 -3.453711,-1.76195 -7.178799,-7.96917 -9.977056,-16.62504 -1.122519,-3.4723 -2.761927,-9.76398 -4.953619,-19.01089 -4.429823,-18.68974 -7.988485,-31.03477 -13.703979,-47.53919 -3.03253,-8.75693 -4.046588,-12.16117 -4.420428,-14.839585 -0.09673,-0.693013 -0.285977,-1.328075 -0.420556,-1.41125 -0.134579,-0.08317 -1.210703,0.396083 -2.391389,1.065016 -1.180685,0.668933 -2.194358,1.168579 -2.252606,1.110335 -0.104282,-0.104282 2.98023,-2.211406 4.035739,-2.756937 0.539694,-0.278936 0.539896,-0.288814 0.07231,-3.540511 -0.257893,-1.793437 -0.501435,-3.397262 -0.541204,-3.564055 -0.04529,-0.18997 -0.961871,0.08796 -2.453556,0.743979 -3.124903,1.374286 -3.293487,1.426588 -2.513542,0.779809 0.363802,-0.301687 1.608537,-0.947067 2.766078,-1.434178 l 2.10462,-0.885656 0.02863,-5.138888 c 0.03422,-6.143006 0.412386,-8.250555 2.113166,-11.776856 0.847234,-1.756607 1.664557,-2.945139 3.032841,-4.410283 l 1.873055,-2.005649 -0.402944,-3.254734 c -0.50462,-4.076011 -0.507126,-6.362581 -0.01156,-10.548196 0.544497,-4.598915 1.824115,-9.013227 3.882221,-13.39253 l 0.885773,-1.884776 1.827431,0.3799 c 8.53117,1.773526 17.853077,7.346615 23.609617,14.114975 l 2.017022,2.371552 h 1.775165 c 2.308192,0 5.704309,0.445937 8.270227,1.085947 6.135575,1.530379 11.558125,5.853077 13.923415,11.099354 0.93324,2.069957 1.03463,2.520538 1.48158,6.584495 0.4643,4.221713 0.92863,4.996975 6.18368,10.324605 l 4.05481,4.110807 -0.12303,2.645833 c -0.23059,4.959277 -2.22875,10.099141 -5.02742,12.932027 -2.4031,2.43249 -4.76706,3.41223 -9.07694,3.76193 -2.68003,0.21746 -3.47864,0.0371 -3.82086,-0.86304 -0.14445,-0.37992 -0.20327,-0.75012 -0.13072,-0.82267 0.0725,-0.0726 1.11796,-0.22178 2.32314,-0.33163 1.45257,-0.13239 2.94916,-0.49162 4.43956,-1.06563 1.8829,-0.72518 2.50634,-1.1276 3.83582,-2.47595 1.80024,-1.825798 2.91723,-3.876795 3.33135,-6.116963 0.25565,-1.382956 0.23593,-1.559924 -0.20102,-1.8035 -0.83689,-0.466516 -3.29702,-2.910502 -3.68504,-3.66085 -0.51927,-1.004154 -0.47264,-1.184085 0.35627,-1.37461 0.40019,-0.09198 1.2958,-0.321513 1.99025,-0.510069 l 1.26264,-0.342828 -1.69894,-1.500862 C 114.89303,82.281443 112.53446,78.6858 111.58886,74.936462 110.0899,68.992985 108.65573,66.054155 105.90414,63.287609 102.61648,59.982093 98.825054,58.288538 93.551835,57.770089 91.930454,57.6106 89.78723,57.556074 88.789105,57.64884 l -1.814773,0.168666 -1.055975,-1.553221 c -1.485044,-2.184335 -5.96956,-6.53621 -8.901707,-8.638419 -2.935837,-2.104853 -7.317589,-4.414515 -9.847351,-5.19063 -2.913875,-0.893957 -2.885632,-0.906531 -3.950099,1.75864 -1.576174,3.946364 -1.91097,6.085218 -1.894757,12.104688 0.01336,4.961268 0.0604,5.456866 0.753358,7.9375 1.112444,3.982312 1.145634,3.618042 -0.394818,4.333295 -2.35896,1.095299 -5.211287,4.503357 -6.22041,7.43236 -0.490886,1.424805 -1.0162,8.291586 -0.77934,10.187345 L 54.87311,87.708792 55.7104,87.5364 c 6.806422,-1.401388 15.063714,-1.541439 19.268469,-0.326811 0.88161,0.254671 0.07168,0.293828 -4.550942,0.220018 -3.092881,-0.04939 -6.980986,0.04277 -8.640233,0.204786 -2.794745,0.272892 -6.650797,0.943019 -6.908351,1.200573 -0.136114,0.136114 0.470026,5.469384 0.655767,5.769919 0.07351,0.118937 0.271877,0.107299 0.440823,-0.02586 0.363404,-0.286428 3.878148,-1.460009 6.128007,-2.046155 3.050136,-0.794638 6.584343,-1.174179 10.583333,-1.136552 l 3.968749,0.03734 -3.736996,0.214604 c -4.730928,0.271683 -9.7368,1.357787 -15.379148,3.336753 -1.055026,0.370034 -1.918229,0.778489 -1.918229,0.907679 0,0.532149 1.14804,5.548076 1.770384,7.735026 0.367808,1.29249 1.438011,4.50718 2.378228,7.14375 3.752958,10.52409 6.104841,18.53581 11.465467,39.0573 0.43715,1.67349 1.79497,7.09083 3.01738,12.03854 3.850397,15.5845 6.231606,22.42502 9.324158,26.78558 1.217321,1.71645 1.800119,2.1863 2.711859,2.1863 1.493207,0 1.864806,-3.27425 1.681567,-14.81667 -0.147282,-9.27744 0.123425,-14.76028 0.988087,-20.01252 1.927254,-11.70675 5.566796,-18.85138 10.571855,-20.75315 1.475556,-0.56067 3.815266,-0.66252 5.360536,-0.23335 1.69218,0.46996 4.1862,2.37067 5.65288,4.30808 3.17783,4.19773 5.36367,10.30077 6.83943,19.09615 0.95842,5.71209 1.20741,8.98583 1.21745,16.00729 0.0115,8.04016 0.35154,13.89961 0.88005,15.16451 1.01336,2.42531 3.17101,1.61049 6.17577,-2.33222 3.05586,-4.00977 6.31596,-13.60077 10.92711,-32.14687 1.19695,-4.81414 2.30039,-8.86921 3.45583,-12.7 3.35338,-11.11787 6.25091,-22.28023 7.90238,-30.44287 3.88423,-19.198403 4.74005,-35.974356 2.25331,-44.169633 -2.0514,-6.760558 -7.10104,-10.878314 -15.28586,-12.464941 -6.86805,-1.331371 -16.68194,-0.73893 -23.28529,1.405677 l -1.80888,0.587478 -0.50034,-0.651086 c -0.27519,-0.358098 -0.503,-0.712283 -0.50623,-0.787079 -0.008,-0.188501 6.35728,-2.550866 8.48429,-3.148724 5.81254,-1.633781 14.07441,-1.997688 19.29107,-0.849705 7.81601,1.719997 13.24252,5.534792 16.00983,11.254787 2.33867,4.833997 3.03824,8.677005 3.03943,16.69665 0.003,18.018447 -3.42786,37.430876 -11.1039,62.834026 -1.91808,6.34774 -3.37621,11.5416 -5.57095,19.84375 -5.40189,20.43405 -8.09362,27.04738 -13.15307,32.31593 -2.52196,2.6262 -5.6223,3.82484 -7.82583,3.02561 z"/><path d="m 105.23102,82.433284 c -0.65667,-0.241754 -2.79039,-0.474095 -5.622112,-0.612193 -6.469163,-0.315489 -9.095194,-1.105413 -12.164616,-3.659182 -0.614889,-0.51159 -1.075903,-0.972241 -1.024474,-1.023669 0.05143,-0.05143 0.852176,0.203273 1.779438,0.566003 0.927263,0.36273 2.191595,0.789258 2.809627,0.947839 1.477258,0.379051 7.400393,0.7927 8.753008,0.611276 2.111029,-0.283148 5.845299,1.310264 6.666439,2.844562 0.3657,0.683328 0.0259,0.775676 -1.19731,0.325364 z"/></g><path d="M148.87408142964233 428.116Q131.88208142964234 428.116 121.73408142964234 425.579Q111.58608142964233 423.04200000000003 105.56808142964233 416.906Q103.91608142964233 418.086 101.43808142964232 419.915Q98.96008142964233 421.744 96.71808142964233 423.396Q94.47608142964233 425.048 93.29608142964233 425.874Q90.81808142964233 427.644 87.57308142964234 427.172Q84.32808142964234 426.7 82.67608142964234 423.986Q81.14208142964233 421.272 81.79108142964233 418.322Q82.44008142964233 415.372 85.15408142964233 413.838Q87.16008142964233 412.776 90.93608142964233 410.65200000000004Q94.71208142964232 408.528 97.54408142964233 406.994V382.568Q97.54408142964233 379.618 96.60008142964233 378.55600000000004Q95.65608142964234 377.494 92.82408142964233 377.494H87.16008142964233Q84.32808142964234 377.494 82.61708142964234 375.665Q80.90608142964234 373.836 80.90608142964234 371.24Q80.90608142964234 368.526 82.61708142964234 366.697Q84.32808142964234 364.868 87.16008142964233 364.868H98.13408142964234Q110.76008142964233 364.868 110.76008142964233 377.494V404.988Q113.82808142964234 408.646 118.13508142964233 410.88800000000003Q122.44208142964233 413.13 129.75808142964232 414.192Q137.07408142964232 415.254 148.87408142964233 415.254Q159.02208142964233 415.254 166.98708142964233 414.959Q174.95208142964233 414.664 181.44208142964231 414.192Q184.98208142964234 413.838 187.28308142964232 415.726Q189.5840814296423 417.61400000000003 189.5840814296423 420.682Q189.5840814296423 423.868 187.69608142964233 425.874Q185.80808142964233 427.88 181.67808142964233 427.998Q176.48608142964233 427.998 170.40908142964233 427.998Q164.33208142964233 427.998 158.6680814296423 428.057Q153.00408142964233 428.116 148.87408142964233 428.116ZM150.05408142964234 411.478Q147.10408142964235 411.478 145.03908142964235 409.59000000000003Q142.97408142964233 407.702 142.97408142964233 404.398V366.048H120.31808142964233Q117.36808142964233 366.048 115.59808142964233 364.101Q113.82808142964234 362.154 113.82808142964234 359.44Q113.82808142964234 356.726 115.59808142964233 354.838Q117.36808142964233 352.95000000000005 120.31808142964233 352.95000000000005H142.97408142964233V329.11400000000003Q142.97408142964233 325.928 145.03908142964235 324.04Q147.10408142964235 322.15200000000004 150.05408142964234 322.15200000000004Q153.00408142964233 322.15200000000004 155.01008142964233 324.04Q157.01608142964233 325.928 157.01608142964233 329.11400000000003V352.95000000000005H180.49808142964233Q183.44808142964234 352.95000000000005 185.21808142964233 354.838Q186.98808142964234 356.726 186.98808142964234 359.44Q186.98808142964234 362.154 185.21808142964233 364.101Q183.44808142964234 366.048 180.49808142964233 366.048H157.01608142964233V404.398Q157.01608142964233 407.702 155.01008142964233 409.59000000000003Q153.00408142964233 411.478 150.05408142964234 411.478ZM102.26408142964233 348.112Q100.61208142964233 346.342 98.07508142964232 344.159Q95.53808142964233 341.976 93.00108142964234 339.852Q90.46408142964233 337.728 88.45808142964233 336.312Q86.33408142964234 334.66 86.27508142964234 331.946Q86.21608142964233 329.232 87.86808142964233 327.34400000000005Q89.63808142964234 325.338 92.23408142964234 324.925Q94.83008142964233 324.512 97.19008142964233 326.164Q99.43208142964234 327.81600000000003 102.14608142964234 329.94000000000005Q104.86008142964234 332.064 107.39708142964233 334.188Q109.93408142964233 336.312 111.58608142964233 337.846Q113.82808142964234 339.73400000000004 113.82808142964234 342.625Q113.82808142964234 345.516 111.70408142964233 347.64Q109.81608142964234 349.764 107.04308142964234 349.94100000000003Q104.27008142964233 350.118 102.26408142964233 348.112ZM86.45208142964233 547.65Q83.62008142964234 547.65 82.02708142964234 545.88Q80.43408142964233 544.11 80.43408142964233 541.632Q80.43408142964233 539.154 82.02708142964234 537.443Q83.62008142964234 535.732 86.45208142964233 535.732H127.51608142964233V528.18H99.55008142964233Q96.83608142964233 528.18 95.24308142964233 526.4689999999999Q93.65008142964234 524.7579999999999 93.65008142964234 522.3979999999999Q93.65008142964234 520.038 95.24308142964233 518.268Q96.83608142964233 516.4979999999999 99.55008142964233 516.4979999999999H127.51608142964233V509.53599999999994H122.20608142964232Q112.41208142964234 509.53599999999994 108.45908142964234 506.23199999999997Q104.50608142964234 502.928 104.50608142964234 494.19599999999997Q104.50608142964234 485.46399999999994 108.45908142964234 482.27799999999996Q112.41208142964234 479.092 122.20608142964232 479.092H147.57608142964233Q157.3700814296423 479.092 161.32308142964231 482.27799999999996Q165.27608142964232 485.46399999999994 165.27608142964232 494.19599999999997Q165.27608142964232 502.928 161.32308142964231 506.23199999999997Q157.3700814296423 509.53599999999994 147.57608142964233 509.53599999999994H141.91208142964234V516.4979999999999H169.5240814296423Q172.23808142964234 516.4979999999999 173.83108142964232 518.268Q175.42408142964234 520.038 175.42408142964234 522.3979999999999Q175.42408142964234 524.7579999999999 173.83108142964232 526.4689999999999Q172.23808142964234 528.18 169.5240814296423 528.18H141.91208142964234V535.732H182.97608142964233Q185.69008142964233 535.732 187.34208142964235 537.443Q188.99408142964234 539.154 188.99408142964234 541.632Q188.99408142964234 544.11 187.34208142964235 545.88Q185.69008142964233 547.65 182.97608142964233 547.65ZM89.99208142964233 492.662Q86.80608142964233 492.662 84.85908142964233 490.774Q82.91208142964233 488.88599999999997 82.91208142964233 485.7V479.79999999999995Q82.91208142964233 469.888 87.80908142964233 465.93499999999995Q92.70608142964232 461.98199999999997 104.62408142964233 461.98199999999997H105.45008142964232Q104.97808142964233 461.15599999999995 103.85708142964234 459.38599999999997Q102.73608142964233 457.616 101.61508142964233 455.905Q100.49408142964234 454.19399999999996 100.02208142964233 453.486Q98.48808142964234 451.126 99.25508142964233 448.53Q100.02208142964233 445.93399999999997 102.38208142964234 444.518Q104.97808142964233 442.866 107.75108142964234 443.33799999999997Q110.52408142964234 443.80999999999995 112.05808142964233 445.93399999999997Q112.76608142964233 446.878 113.94608142964233 448.707Q115.12608142964234 450.53599999999994 116.18808142964234 452.24699999999996Q117.25008142964234 453.95799999999997 117.60408142964233 454.548Q119.96408142964233 458.55999999999995 117.48608142964233 461.98199999999997H127.28008142964234V448.412Q127.28008142964234 444.98999999999995 129.46308142964233 443.043Q131.64608142964232 441.096 134.71408142964233 441.096Q137.78208142964235 441.096 139.96508142964234 443.043Q142.14808142964233 444.98999999999995 142.14808142964233 448.412V461.98199999999997H152.53208142964235Q151.23408142964234 460.566 150.88008142964233 458.55999999999995Q150.52608142964232 456.554 151.58808142964233 454.66599999999994Q152.0600814296423 453.95799999999997 153.00408142964233 452.365Q153.94808142964234 450.772 154.89208142964233 449.179Q155.83608142964232 447.58599999999996 156.19008142964233 446.996Q157.60608142964233 444.4 160.32008142964233 443.515Q163.03408142964233 442.63 165.63008142964233 443.928Q168.34408142964233 445.344 169.22908142964235 447.999Q170.11408142964234 450.654 168.69808142964234 453.13199999999995Q168.34408142964233 453.722 167.4590814296423 455.256Q166.57408142964232 456.78999999999996 165.63008142964233 458.265Q164.68608142964234 459.73999999999995 164.33208142964233 460.448Q164.0960814296423 460.91999999999996 163.74208142964233 461.274Q163.38808142964234 461.628 163.03408142964233 461.98199999999997H165.04008142964233Q176.95808142964233 461.98199999999997 181.85508142964233 465.93499999999995Q186.75208142964232 469.888 186.75208142964232 479.79999999999995V485.22799999999995Q186.75208142964232 488.414 184.8050814296423 490.30199999999996Q182.8580814296423 492.18999999999994 179.67208142964233 492.18999999999994Q176.48608142964233 492.18999999999994 174.53908142964235 490.30199999999996Q172.59208142964235 488.414 172.59208142964235 485.22799999999995V480.272Q172.59208142964235 476.26 170.94008142964233 475.02099999999996Q169.28808142964232 473.782 164.45008142964232 473.782H105.21408142964233Q100.37608142964234 473.782 98.72408142964234 475.02099999999996Q97.07208142964234 476.26 97.07208142964234 480.272V485.7Q97.07208142964234 488.88599999999997 95.12508142964234 490.774Q93.17808142964233 492.662 89.99208142964233 492.662ZM124.21208142964232 498.44399999999996H145.57008142964233Q148.99208142964233 498.44399999999996 150.29008142964233 497.61799999999994Q151.58808142964233 496.792 151.58808142964233 494.19599999999997Q151.58808142964233 491.71799999999996 150.29008142964233 490.89199999999994Q148.99208142964233 490.066 145.57008142964233 490.066H124.21208142964232Q120.79008142964233 490.066 119.49208142964233 490.89199999999994Q118.19408142964232 491.71799999999996 118.19408142964232 494.19599999999997Q118.19408142964232 496.792 119.49208142964233 497.61799999999994Q120.79008142964233 498.44399999999996 124.21208142964232 498.44399999999996ZM117.01408142964233 664.352Q114.18208142964232 663.9979999999999 112.41208142964233 661.6969999999999Q110.64208142964233 659.396 110.99608142964233 656.446Q111.35008142964233 653.496 113.65108142964233 651.726Q115.95208142964233 649.956 118.90208142964232 650.31Q122.56008142964234 650.7819999999999 125.45108142964234 650.487Q128.34208142964235 650.192 130.46608142964234 648.068Q132.59008142964234 645.944 134.24208142964233 641.106Q135.89408142964234 636.268 137.07408142964232 627.7719999999999Q138.13608142964233 620.338 137.25108142964234 616.149Q136.36608142964232 611.96 132.82608142964233 610.367Q129.28608142964234 608.774 122.32408142964233 609.246Q119.49208142964233 618.922 115.53908142964232 628.598Q111.58608142964233 638.274 106.86608142964234 646.947Q102.14608142964234 655.62 96.60008142964233 662.582Q94.71208142964232 664.824 91.88008142964233 665.237Q89.04808142964234 665.65 86.68808142964234 663.88Q84.44608142964233 661.992 84.03308142964234 659.101Q83.62008142964234 656.21 85.50808142964233 653.968Q92.47008142964233 645.472 98.13408142964234 634.026Q103.79808142964234 622.5799999999999 107.69208142964233 610.4259999999999Q104.03408142964233 610.898 100.19908142964233 611.3109999999999Q96.36408142964234 611.7239999999999 92.70608142964232 612.078Q89.75608142964234 612.314 87.51408142964233 610.544Q85.27208142964233 608.774 84.91808142964233 605.824Q84.68208142964234 602.874 86.45208142964233 600.573Q88.22208142964233 598.2719999999999 91.17208142964233 598.036Q96.24608142964233 597.446 101.43808142964232 597.033Q106.63008142964233 596.62 111.58608142964233 596.384Q112.88408142964232 591.074 113.59208142964232 585.941Q114.30008142964233 580.808 114.53608142964234 576.088Q114.77208142964233 573.138 116.95508142964233 571.191Q119.13808142964234 569.244 122.08808142964233 569.48Q125.03808142964233 569.598 126.98508142964232 571.781Q128.93208142964232 573.9639999999999 128.69608142964233 576.914Q128.22408142964233 581.28 127.51608142964233 586.0Q126.80808142964233 590.72 125.74608142964233 595.6759999999999Q141.79408142964235 595.912 147.51708142964233 604.29Q153.24008142964232 612.668 150.88008142964233 629.66Q148.99208142964233 644.292 144.80308142964233 652.316Q140.61408142964234 660.34 133.77008142964235 662.995Q126.92608142964232 665.65 117.01408142964233 664.352ZM182.8580814296423 629.66Q180.2620814296423 631.076 177.4300814296423 630.25Q174.59808142964232 629.424 173.18208142964232 626.828Q171.17608142964232 623.052 168.1080814296423 618.863Q165.04008142964233 614.674 161.79508142964232 610.721Q158.55008142964232 606.768 155.60008142964233 603.936Q153.47608142964233 601.93 153.3580814296423 599.039Q153.24008142964232 596.148 155.24608142964235 594.024Q157.25208142964232 591.9 160.14308142964234 591.8409999999999Q163.03408142964233 591.7819999999999 165.15808142964232 593.788Q168.93408142964233 597.328 172.76908142964234 601.871Q176.60408142964235 606.414 179.96708142964235 611.134Q183.33008142964235 615.854 185.5720814296423 620.102Q186.98808142964234 622.698 186.2210814296423 625.471Q185.45408142964232 628.244 182.8580814296423 629.66ZM172.94608142964233 594.1419999999999Q171.41208142964234 592.608 169.11108142964233 590.425Q166.8100814296423 588.242 164.80408142964234 586.59Q163.62408142964233 585.528 163.44708142964234 583.64Q163.27008142964235 581.752 164.56808142964235 580.218Q165.86608142964235 578.684 167.69508142964233 578.566Q169.5240814296423 578.448 171.05808142964233 579.3919999999999Q173.06408142964233 580.572 175.71908142964233 582.755Q178.37408142964233 584.938 180.1440814296423 586.708Q181.67808142964233 588.242 181.67808142964233 590.307Q181.67808142964233 592.372 180.2620814296423 594.024Q178.8460814296423 595.558 176.66308142964232 595.617Q174.48008142964233 595.6759999999999 172.94608142964233 594.1419999999999ZM182.8580814296423 583.05Q181.20608142964232 581.634 178.66908142964232 579.6279999999999Q176.1320814296423 577.622 174.12608142964234 576.088Q172.94608142964233 575.026 172.65108142964232 573.1379999999999Q172.35608142964233 571.25 173.5360814296423 569.716Q174.59808142964232 568.182 176.42708142964233 567.887Q178.25608142964234 567.592 179.90808142964232 568.536Q181.91408142964232 569.598 184.74608142964235 571.545Q187.57808142964234 573.492 189.46608142964232 575.144Q191.11808142964233 576.56 191.23608142964235 578.684Q191.35408142964235 580.808 190.05608142964235 582.46Q188.87608142964234 584.112 186.69308142964235 584.348Q184.51008142964233 584.584 182.8580814296423 583.05ZM138.49008142964232 786.954Q124.33008142964233 786.954 116.24708142964232 779.933Q108.16408142964232 772.912 108.16408142964232 757.336V694.442Q108.16408142964232 691.492 110.22908142964232 689.4269999999999Q112.29408142964233 687.362 115.24408142964234 687.362Q118.19408142964232 687.362 120.25908142964232 689.4269999999999Q122.32408142964233 691.492 122.32408142964233 694.442V757.336Q122.32408142964233 766.068 126.27708142964232 769.49Q130.23008142964233 772.912 138.49008142964232 772.912Q145.80608142964235 772.912 152.23708142964233 769.018Q158.6680814296423 765.124 162.6800814296423 756.51Q163.97808142964232 753.796 166.8100814296423 752.8520000000001Q169.64208142964233 751.908 172.23808142964234 753.206Q174.95208142964233 754.386 175.83708142964235 757.218Q176.72208142964234 760.05 175.54208142964234 762.764Q170.35008142964233 774.446 160.37908142964233 780.7Q150.40808142964232 786.954 138.49008142964232 786.954ZM159.02208142964233 712.142Q157.48808142964234 710.49 155.18708142964232 708.307Q152.88608142964233 706.124 150.88008142964233 704.472Q149.70008142964232 703.41 149.52308142964233 701.5219999999999Q149.3460814296423 699.634 150.52608142964232 698.1Q151.82408142964232 696.684 153.65308142964233 696.5070000000001Q155.48208142964234 696.33 157.13408142964232 697.274Q159.02208142964233 698.454 161.67708142964233 700.578Q164.33208142964233 702.702 166.22008142964233 704.59Q167.75408142964233 706.124 167.75408142964233 708.1890000000001Q167.75408142964233 710.254 166.33808142964233 711.906Q164.92208142964233 713.44 162.79808142964234 713.558Q160.67408142964234 713.676 159.02208142964233 712.142ZM155.71808142964233 722.998Q154.30208142964233 724.414 152.11908142964234 724.355Q149.93608142964234 724.296 148.52008142964235 722.644Q147.10408142964235 720.992 144.92108142964236 718.6320000000001Q142.73808142964234 716.272 140.85008142964233 714.502Q139.67008142964232 713.322 139.61108142964233 711.434Q139.55208142964233 709.546 140.96808142964233 708.13Q142.26608142964233 706.832 144.15408142964233 706.7139999999999Q146.04208142964234 706.596 147.57608142964233 707.776Q149.46408142964233 709.074 152.00108142964234 711.375Q154.53808142964232 713.676 156.19008142964233 715.682Q157.48808142964234 717.216 157.42908142964234 719.3399999999999Q157.3700814296423 721.4639999999999 155.71808142964233 722.998ZM124.21208142964232 912.86Q122.44208142964233 911.09 122.56008142964234 908.435Q122.67808142964233 905.78 124.56608142964234 904.01Q127.63408142964232 900.942 129.87608142964234 896.9300000000001Q125.51008142964233 894.452 122.26508142964232 890.086Q119.02008142964233 885.72 117.72208142964233 879.702Q117.13208142964234 877.342 118.31208142964233 875.159Q119.49208142964233 872.976 121.85208142964234 872.386Q124.21208142964232 871.678 126.39508142964233 872.917Q128.57808142964234 874.1560000000001 129.05008142964232 876.634Q130.46608142964232 882.652 134.36008142964232 885.838Q136.01208142964234 879.702 136.5430814296423 872.799Q137.07408142964232 865.896 136.48408142964234 858.934Q130.11208142964233 860.468 124.44808142964233 864.8340000000001Q118.78408142964233 869.2 115.18508142964234 875.69Q111.58608142964233 882.1800000000001 111.11408142964234 890.086Q110.99608142964233 892.328 109.34408142964233 893.685Q107.69208142964233 895.042 105.33208142964233 895.16Q102.97208142964233 895.16 101.37908142964233 893.626Q99.78608142964234 892.092 99.55008142964233 889.614Q99.07808142964234 885.13 98.72408142964234 879.879Q98.37008142964234 874.628 98.19308142964233 869.2Q98.01608142964233 863.772 98.01608142964233 858.993Q98.01608142964233 854.214 98.13408142964234 850.91Q98.25208142964233 848.314 100.02208142964233 846.6030000000001Q101.79208142964234 844.892 104.38808142964234 845.128Q106.98408142964233 845.246 108.51808142964234 847.075Q110.05208142964233 848.904 109.81608142964234 851.618Q109.69808142964233 854.096 109.63908142964233 857.99Q109.58008142964233 861.884 109.58008142964233 866.368Q114.18208142964232 859.17 120.73108142964233 854.2729999999999Q127.28008142964234 849.376 134.83208142964233 847.488Q133.77008142964235 842.65 132.35408142964235 838.402Q131.52808142964233 835.924 132.64908142964234 833.623Q133.77008142964235 831.322 136.24808142964233 830.496Q138.72608142964233 829.6700000000001 140.96808142964233 830.85Q143.21008142964234 832.03 144.03608142964234 834.508Q144.98008142964233 837.458 145.74708142964232 840.467Q146.51408142964232 843.476 147.10408142964235 846.78Q154.30208142964233 847.488 159.78908142964232 850.969Q165.27608142964232 854.45 168.40308142964233 860.0550000000001Q171.53008142964234 865.66 171.53008142964234 872.8580000000001Q171.53008142964234 881.472 167.57708142964233 887.6669999999999Q163.62408142964233 893.862 157.19308142964235 897.107Q150.76208142964234 900.352 143.32808142964234 900.352H141.79408142964235Q140.02408142964234 904.01 137.90008142964234 907.196Q135.77608142964232 910.3820000000001 133.06208142964232 912.86Q131.17408142964234 914.748 128.63708142964234 914.6890000000001Q126.10008142964233 914.63 124.21208142964232 912.86ZM145.80608142964235 888.67Q151.58808142964233 887.844 155.60008142964233 883.773Q159.61208142964233 879.702 159.61208142964233 872.8580000000001Q159.61208142964233 867.312 156.72108142964234 863.595Q153.83008142964235 859.878 148.40208142964235 858.58Q148.99208142964233 866.25 148.34308142964233 873.979Q147.69408142964232 881.708 145.80608142964235 888.67ZM121.85208142964234 1029.68Q112.17608142964232 1029.68 106.27608142964233 1025.1370000000002Q100.37608142964234 1020.594 100.37608142964234 1011.626Q100.37608142964234 1003.602 106.33508142964234 998.764Q112.29408142964233 993.926 122.32408142964233 993.926Q125.86408142964234 993.926 129.40408142964233 994.28L129.05008142964232 980.946Q116.77808142964233 981.3000000000001 107.33808142964233 980.946Q104.38808142964234 980.71 102.55908142964233 978.527Q100.73008142964233 976.344 100.84808142964233 973.5120000000001Q101.08408142964234 970.6800000000001 103.26708142964233 968.792Q105.45008142964232 966.904 108.28208142964233 967.14Q112.76608142964233 967.376 118.01708142964233 967.435Q123.26808142964234 967.494 128.69608142964233 967.376Q128.57808142964234 964.544 128.57808142964234 961.712Q128.57808142964234 958.88 128.46008142964234 956.166Q122.67808142964233 956.284 117.25008142964234 956.225Q111.82208142964234 956.166 107.33808142964233 956.048Q104.38808142964234 955.9300000000001 102.55908142964233 953.7470000000001Q100.73008142964233 951.5640000000001 100.84808142964233 948.614Q101.08408142964234 945.782 103.26708142964233 943.894Q105.45008142964232 942.0060000000001 108.28208142964233 942.2420000000001Q117.01408142964233 942.832 128.22408142964233 942.596V932.448Q128.22408142964233 929.498 130.23008142964233 927.433Q132.23608142964233 925.368 135.18608142964234 925.368Q138.13608142964233 925.368 140.20108142964233 927.433Q142.26608142964233 929.498 142.26608142964233 932.448Q142.26608142964233 934.572 142.26608142964233 936.991Q142.26608142964233 939.4100000000001 142.38408142964232 942.124Q147.22208142964234 941.77 151.70608142964232 941.357Q156.19008142964233 940.9440000000001 159.84808142964232 940.472Q162.6800814296423 940.118 164.98108142964233 941.829Q167.28208142964235 943.54 167.63608142964233 946.3720000000001Q167.99008142964232 949.322 166.27908142964233 951.623Q164.56808142964235 953.924 161.73608142964233 954.278Q157.60608142964233 954.75 152.7090814296423 955.104Q147.81208142964232 955.4580000000001 142.6200814296423 955.6940000000001Q142.6200814296423 958.408 142.67908142964234 961.24Q142.73808142964234 964.072 142.85608142964233 966.904Q147.57608142964233 966.668 151.88308142964235 966.255Q156.19008142964233 965.842 159.84808142964232 965.37Q162.6800814296423 964.898 164.98108142964233 966.668Q167.28208142964235 968.438 167.63608142964233 971.27Q167.99008142964232 974.102 166.27908142964233 976.403Q164.56808142964235 978.7040000000001 161.73608142964233 979.058Q157.72408142964233 979.53 153.00408142964233 979.884Q148.28408142964233 980.238 143.09208142964235 980.474Q143.32808142964234 985.1940000000001 143.38708142964234 989.442Q143.44608142964233 993.69 143.56408142964233 997.3480000000001Q150.40808142964232 999.354 156.54408142964232 1002.3040000000001Q162.6800814296423 1005.254 167.40008142964234 1008.558Q169.76008142964233 1010.092 170.2910814296423 1013.042Q170.8220814296423 1015.9920000000001 169.17008142964232 1018.352Q167.51808142964234 1020.712 164.62708142964232 1021.2429999999999Q161.73608142964233 1021.774 159.37608142964234 1020.1220000000001Q156.0720814296423 1017.7620000000001 152.0600814296423 1015.5790000000001Q148.04808142964234 1013.3960000000001 143.68208142964232 1011.626Q143.21008142964234 1020.948 137.54608142964236 1025.314Q131.88208142964234 1029.68 121.85208142964234 1029.68ZM121.73408142964233 1016.346Q126.57208142964234 1016.346 128.10608142964233 1014.635Q129.64008142964232 1012.924 129.64008142964232 1009.738V1007.496Q125.62808142964232 1006.788 121.73408142964233 1006.788Q117.95808142964233 1006.788 116.18808142964234 1008.086Q114.41808142964234 1009.384 114.41808142964234 1011.626Q114.41808142964234 1016.346 121.73408142964233 1016.346ZM134.36008142964232 1148.034Q123.62208142964232 1147.798 117.42708142964233 1142.842Q111.23208142964234 1137.886 111.46808142964233 1129.272Q111.70408142964233 1124.198 114.35908142964233 1120.422Q117.01408142964233 1116.646 121.61608142964232 1114.699Q126.21808142964233 1112.752 132.11808142964233 1113.342Q141.55808142964233 1114.1680000000001 145.3340814296423 1119.7730000000001Q149.11008142964232 1125.378 147.57608142964233 1132.576Q151.70608142964232 1130.57 154.36108142964233 1126.7350000000001Q157.01608142964233 1122.9 157.01608142964233 1116.7640000000001Q157.01608142964233 1112.162 154.36108142964233 1108.4450000000002Q151.70608142964232 1104.728 146.92708142964233 1102.663Q142.14808142964233 1100.598 135.8940814296423 1100.952Q129.64008142964232 1101.306 122.44208142964233 1104.669Q115.24408142964234 1108.0320000000002 107.69208142964233 1115.348Q105.56808142964233 1117.354 102.38208142964234 1117.295Q99.19608142964233 1117.236 97.19008142964233 1114.876Q95.30208142964233 1112.634 95.47908142964233 1109.743Q95.65608142964234 1106.852 97.89808142964233 1105.2Q105.21408142964233 1099.654 112.53008142964234 1093.459Q119.84608142964234 1087.2640000000001 126.51308142964233 1081.246Q133.1800814296423 1075.228 138.25408142964233 1070.272Q141.44008142964233 1067.204 140.43708142964232 1065.1979999999999Q139.43408142964233 1063.192 135.30408142964234 1063.7820000000002Q131.29208142964234 1064.2540000000001 126.15908142964233 1064.962Q121.02608142964233 1065.67 116.54208142964234 1066.26Q113.71008142964233 1066.732 111.35008142964233 1064.962Q108.99008142964233 1063.192 108.63608142964233 1060.242Q108.16408142964232 1057.41 109.93408142964233 1055.109Q111.70408142964233 1052.808 114.65408142964233 1052.336Q117.25008142964234 1051.982 121.20308142964234 1051.6280000000002Q125.15608142964234 1051.2740000000001 129.34508142964233 1050.92Q133.53408142964233 1050.566 136.48408142964234 1050.33Q144.15408142964233 1049.74 148.99208142964233 1052.336Q153.83008142964235 1054.932 155.60008142964233 1059.357Q157.3700814296423 1063.7820000000002 155.77708142964232 1068.9740000000002Q154.18408142964233 1074.166 148.99208142964233 1078.768Q146.6320814296423 1080.7740000000001 143.03308142964232 1083.96Q139.43408142964233 1087.146 135.65808142964232 1090.45Q142.38408142964232 1089.152 148.75608142964234 1090.2730000000001Q155.12808142964235 1091.394 160.14308142964234 1094.816Q165.15808142964232 1098.238 168.1080814296423 1103.843Q171.05808142964233 1109.448 171.05808142964233 1117.0Q171.05808142964233 1127.738 166.33808142964233 1134.759Q161.61808142964233 1141.78 153.3580814296423 1145.025Q145.09808142964232 1148.27 134.36008142964232 1148.034ZM132.23608142964233 1134.9360000000001Q132.47208142964234 1134.9360000000001 132.94408142964232 1134.9360000000001Q133.29808142964234 1134.9360000000001 133.82908142964232 1134.9950000000001Q134.36008142964232 1135.054 135.06808142964235 1134.9360000000001Q136.72008142964233 1131.0420000000001 135.65808142964232 1128.4460000000001Q134.59608142964234 1125.8500000000001 131.41008142964233 1125.378Q128.57808142964234 1125.0240000000001 126.74908142964233 1126.145Q124.92008142964232 1127.266 124.68408142964233 1129.7440000000001Q124.56608142964234 1134.464 132.23608142964233 1134.9360000000001ZM115.71608142964233 1272.1699999999998Q105.33208142964233 1272.1699999999998 99.43208142964232 1270.105Q93.53208142964233 1268.04 91.17208142964233 1262.73Q88.81208142964233 1257.4199999999998 88.81208142964233 1247.744V1210.338Q88.81208142964233 1207.624 90.75908142964232 1205.6770000000001Q92.70608142964232 1203.73 95.42008142964234 1203.73Q98.13408142964234 1203.73 100.08108142964232 1205.6770000000001Q102.02808142964233 1207.624 102.02808142964233 1210.338V1247.744Q102.02808142964233 1252.936 103.26708142964233 1255.7089999999998Q104.50608142964234 1258.482 107.45608142964234 1259.485Q110.40608142964234 1260.4879999999998 115.71608142964233 1260.4879999999998H153.59408142964233Q158.90408142964233 1260.4879999999998 161.91308142964232 1259.485Q164.92208142964233 1258.482 166.10208142964234 1255.7089999999998Q167.28208142964235 1252.936 167.28208142964235 1247.744V1210.22Q167.28208142964235 1207.5059999999999 169.22908142964235 1205.5Q171.17608142964232 1203.494 173.89008142964232 1203.494Q176.60408142964235 1203.494 178.55108142964235 1205.5Q180.49808142964233 1207.5059999999999 180.49808142964233 1210.22V1247.744Q180.49808142964233 1257.4199999999998 178.13808142964234 1262.73Q175.77808142964233 1268.04 169.93708142964232 1270.105Q164.0960814296423 1272.1699999999998 153.59408142964233 1272.1699999999998ZM84.91808142964233 1201.96Q82.55808142964233 1201.96 80.90608142964234 1200.249Q79.25408142964234 1198.538 79.25408142964234 1196.2959999999998Q79.25408142964234 1193.936 80.90608142964234 1192.2839999999999Q82.55808142964233 1190.6319999999998 84.91808142964233 1190.6319999999998H101.08408142964234V1173.522Q101.08408142964234 1170.454 103.09008142964234 1168.625Q105.09608142964234 1166.7959999999998 107.81008142964234 1166.7959999999998Q110.64208142964233 1166.7959999999998 112.58908142964233 1168.625Q114.53608142964234 1170.454 114.53608142964234 1173.522V1190.6319999999998H128.93208142964232V1169.274Q128.93208142964232 1166.206 130.93808142964232 1164.436Q132.94408142964232 1162.666 135.65808142964232 1162.666Q138.37208142964232 1162.666 140.31908142964232 1164.436Q142.26608142964233 1166.206 142.26608142964233 1169.274V1172.578H172.59208142964235Q174.95208142964233 1172.578 176.66308142964232 1174.289Q178.37408142964233 1176.0 178.37408142964233 1178.36Q178.37408142964233 1180.72 176.66308142964232 1182.431Q174.95208142964233 1184.1419999999998 172.59208142964235 1184.1419999999998H142.26608142964233V1190.6319999999998H184.03808142964232Q186.39808142964233 1190.6319999999998 187.99108142964232 1192.2839999999999Q189.5840814296423 1193.936 189.5840814296423 1196.2959999999998Q189.5840814296423 1198.538 187.99108142964232 1200.249Q186.39808142964233 1201.96 184.03808142964232 1201.96ZM134.71408142964233 1259.5439999999999Q132.11808142964233 1259.5439999999999 130.40708142964235 1257.8919999999998Q128.69608142964233 1256.24 128.69608142964233 1253.5259999999998V1241.254Q125.51008142964233 1244.558 121.79308142964233 1247.862Q118.07608142964233 1251.166 114.77208142964233 1253.644Q112.53008142964234 1255.296 109.93408142964233 1255.473Q107.33808142964233 1255.6499999999999 105.45008142964232 1253.408Q103.91608142964233 1251.402 104.15208142964234 1248.806Q104.38808142964234 1246.21 106.63008142964233 1244.676Q110.28808142964233 1242.1979999999999 114.41808142964234 1239.012Q118.54808142964234 1235.826 121.73408142964233 1232.758H109.93408142964233Q107.69208142964233 1232.758 106.04008142964233 1231.106Q104.38808142964234 1229.454 104.38808142964234 1227.212Q104.38808142964234 1224.8519999999999 106.04008142964233 1223.259Q107.69208142964233 1221.666 109.93408142964233 1221.666H115.59808142964233Q114.41808142964234 1220.9579999999999 113.71008142964233 1219.778Q113.35608142964233 1219.07 112.41208142964233 1217.654Q111.46808142964233 1216.2379999999998 110.58308142964233 1214.763Q109.69808142964233 1213.288 109.10808142964234 1212.462Q107.92808142964233 1210.456 108.63608142964233 1208.3319999999999Q109.34408142964233 1206.2079999999999 111.35008142964233 1205.146Q113.47408142964233 1204.0839999999998 115.59808142964232 1204.556Q117.72208142964233 1205.028 119.02008142964233 1207.0339999999999Q119.49208142964233 1207.624 120.43608142964233 1209.158Q121.38008142964233 1210.692 122.38308142964233 1212.226Q123.38608142964233 1213.76 123.74008142964233 1214.4679999999998Q124.80208142964233 1216.474 124.15308142964233 1218.4209999999998Q123.50408142964233 1220.368 121.49808142964233 1221.666H128.69608142964233V1209.512Q128.69608142964233 1206.6799999999998 130.40708142964235 1205.087Q132.11808142964233 1203.494 134.71408142964233 1203.494Q137.19208142964231 1203.494 138.90308142964233 1205.087Q140.61408142964234 1206.6799999999998 140.61408142964234 1209.512V1221.666H146.51408142964232Q145.57008142964233 1220.604 145.3340814296423 1219.011Q145.09808142964232 1217.418 145.80608142964235 1216.002Q146.6320814296423 1214.4679999999998 148.0480814296423 1211.636Q149.46408142964233 1208.8039999999999 150.17208142964233 1207.5059999999999Q151.23408142964234 1205.3819999999998 153.41708142964234 1204.6149999999998Q155.60008142964233 1203.848 157.84208142964235 1204.9099999999999Q159.96608142964232 1205.854 160.79208142964234 1208.037Q161.61808142964233 1210.22 160.55608142964235 1212.2259999999999Q159.84808142964232 1213.524 158.37308142964233 1216.2379999999998Q156.89808142964233 1218.952 155.95408142964232 1220.25Q155.71808142964233 1220.604 155.42308142964234 1221.0169999999998Q155.12808142964235 1221.4299999999998 154.77408142964234 1221.666H159.14008142964235Q161.50008142964234 1221.666 163.09308142964233 1223.259Q164.68608142964234 1224.8519999999999 164.68608142964234 1227.212Q164.68608142964234 1229.454 163.09308142964233 1231.106Q161.50008142964234 1232.758 159.14008142964235 1232.758H147.69408142964232Q151.11608142964235 1235.826 155.42308142964234 1239.13Q159.73008142964233 1242.434 163.27008142964235 1244.7939999999999Q165.27608142964232 1246.0919999999999 165.5120814296423 1248.629Q165.74808142964233 1251.166 164.33208142964233 1253.0539999999999Q162.56208142964232 1255.296 160.02508142964234 1255.473Q157.48808142964234 1255.6499999999999 155.24608142964235 1253.998Q151.82408142964232 1251.402 147.87108142964232 1247.9209999999998Q143.9180814296423 1244.4399999999998 140.61408142964234 1240.8999999999999V1253.5259999999998Q140.61408142964234 1256.24 138.90308142964233 1257.8919999999998Q137.19208142964231 1259.5439999999999 134.71408142964233 1259.5439999999999ZM108.04608142964233 1393.5919999999999Q105.33208142964233 1393.5919999999999 103.32608142964233 1391.763Q101.32008142964233 1389.9339999999997 101.32008142964233 1386.8659999999998V1350.994Q98.72408142964233 1355.36 96.24608142964233 1359.3719999999998Q93.76808142964234 1363.3839999999998 91.52608142964233 1366.3339999999998Q89.99208142964233 1368.5759999999998 87.10108142964233 1369.0479999999998Q84.21008142964233 1369.5199999999998 81.73208142964234 1367.7499999999998Q79.60808142964234 1366.3339999999998 79.31308142964234 1363.62Q79.01808142964234 1360.906 80.78808142964233 1358.8999999999999Q82.91208142964233 1356.186 85.68508142964234 1352.2329999999997Q88.45808142964233 1348.2799999999997 91.29008142964233 1343.7959999999998Q94.12208142964234 1339.312 96.65908142964233 1334.8869999999997Q99.19608142964233 1330.4619999999998 100.96608142964233 1326.9219999999998H86.09808142964233Q83.50208142964233 1326.9219999999998 81.73208142964234 1325.0929999999998Q79.96208142964234 1323.264 79.96208142964234 1320.668Q79.96208142964234 1318.072 81.73208142964234 1316.243Q83.50208142964233 1314.4139999999998 86.09808142964233 1314.4139999999998H101.32008142964233V1304.62Q98.13408142964234 1305.3279999999997 95.06608142964234 1305.9179999999997Q91.99808142964233 1306.5079999999998 89.16608142964233 1306.9799999999998Q85.50808142964233 1307.4519999999998 83.56108142964234 1306.0949999999998Q81.61408142964234 1304.7379999999998 81.02408142964234 1302.1419999999998Q80.55208142964233 1299.5459999999998 82.02708142964232 1297.4809999999998Q83.50208142964233 1295.416 86.80608142964233 1294.944Q91.88008142964233 1294.118 98.37008142964234 1292.761Q104.86008142964234 1291.4039999999998 111.11408142964234 1289.6929999999998Q117.36808142964233 1287.9819999999997 121.85208142964234 1286.33Q125.03808142964233 1285.1499999999999 127.45708142964233 1286.212Q129.87608142964234 1287.274 130.70208142964233 1289.9879999999998Q131.64608142964232 1292.7019999999998 130.40708142964235 1294.8259999999998Q129.16808142964234 1296.9499999999998 126.45408142964233 1297.8939999999998Q124.09408142964233 1298.7199999999998 121.08508142964233 1299.5459999999998Q118.07608142964233 1300.3719999999998 114.89008142964232 1301.3159999999998V1314.4139999999998H127.75208142964233Q130.34808142964232 1314.4139999999998 132.17708142964233 1316.243Q134.00608142964234 1318.072 134.00608142964234 1320.668Q134.00608142964234 1323.264 132.17708142964233 1325.0929999999998Q130.34808142964232 1326.9219999999998 127.75208142964233 1326.9219999999998H114.89008142964232V1330.6979999999999Q116.18808142964232 1331.9959999999999 118.25308142964232 1334.12Q120.31808142964233 1336.244 122.61908142964234 1338.5449999999998Q124.92008142964232 1340.8459999999998 126.98508142964232 1342.7929999999997Q129.05008142964232 1344.7399999999998 130.23008142964233 1345.802Q132.23608142964233 1347.572 132.35408142964235 1350.0499999999997Q132.47208142964234 1352.5279999999998 130.82008142964233 1354.416Q129.99408142964234 1355.2419999999997 129.52208142964233 1355.5959999999998Q130.58408142964234 1355.1239999999998 131.41008142964233 1355.0059999999999Q137.31008142964234 1354.062 145.74708142964232 1352.587Q154.18408142964233 1351.1119999999999 162.56208142964232 1349.4599999999998V1290.8139999999999Q162.56208142964232 1287.7459999999999 164.56808142964232 1285.8579999999997Q166.57408142964232 1283.9699999999998 169.4060814296423 1283.9699999999998Q172.23808142964234 1283.9699999999998 174.30308142964233 1285.8579999999997Q176.36808142964233 1287.7459999999999 176.36808142964233 1290.8139999999999V1346.628Q178.72808142964232 1346.156 180.9110814296423 1345.6839999999997Q183.09408142964233 1345.2119999999998 184.86408142964234 1344.858Q187.69608142964233 1344.1499999999999 189.82008142964233 1345.4479999999999Q191.94408142964232 1346.7459999999999 192.41608142964233 1349.4599999999998Q193.00608142964234 1352.5279999999998 191.53108142964234 1354.475Q190.05608142964235 1356.4219999999998 187.34208142964235 1357.012Q185.10008142964233 1357.484 182.26808142964234 1358.1329999999998Q179.43608142964234 1358.782 176.36808142964233 1359.3719999999998V1386.7479999999998Q176.36808142964233 1389.8159999999998 174.30308142964233 1391.7039999999997Q172.23808142964234 1393.5919999999999 169.4060814296423 1393.5919999999999Q166.57408142964232 1393.5919999999999 164.56808142964232 1391.7039999999997Q162.56208142964232 1389.8159999999998 162.56208142964232 1386.7479999999998V1362.322Q154.77408142964234 1363.8559999999998 147.22208142964234 1365.3309999999997Q139.67008142964232 1366.8059999999998 133.88808142964234 1367.7499999999998Q130.82008142964233 1368.2219999999998 128.5190814296423 1366.9239999999998Q126.21808142964233 1365.6259999999997 125.62808142964232 1362.4399999999998Q124.92008142964232 1358.31 128.22408142964233 1356.186Q126.57208142964234 1356.8939999999998 124.62508142964234 1356.5989999999997Q122.67808142964233 1356.3039999999999 121.38008142964233 1355.0059999999999Q118.90208142964232 1352.5279999999998 114.89008142964232 1347.572V1386.8659999999998Q114.89008142964232 1389.9339999999997 112.88408142964232 1391.763Q110.87808142964234 1393.5919999999999 108.04608142964233 1393.5919999999999ZM147.81208142964232 1316.1839999999997Q146.6320814296423 1315.1219999999998 144.56708142964231 1313.4699999999998Q142.50208142964232 1311.8179999999998 140.43708142964232 1310.1659999999997Q138.37208142964232 1308.514 136.95608142964232 1307.4519999999998Q134.95008142964232 1305.918 134.77308142964233 1303.263Q134.59608142964234 1300.6079999999997 136.24808142964233 1298.6019999999999Q138.13608142964233 1296.4779999999998 140.79108142964233 1296.301Q143.44608142964233 1296.1239999999998 145.68808142964232 1297.7759999999998Q147.22208142964234 1298.8379999999997 149.34608142964234 1300.5489999999998Q151.47008142964233 1302.2599999999998 153.53508142964233 1303.9119999999998Q155.60008142964233 1305.5639999999999 156.66208142964234 1306.5079999999998Q158.90408142964233 1308.3959999999997 158.96308142964233 1311.1099999999997Q159.02208142964233 1313.8239999999998 157.01608142964233 1316.0659999999998Q155.24608142964235 1317.8359999999998 152.65008142964234 1317.9539999999997Q150.05408142964234 1318.072 147.81208142964232 1316.1839999999997ZM143.32808142964234 1343.206Q142.14808142964233 1342.1439999999998 140.08308142964233 1340.4919999999997Q138.01808142964234 1338.84 135.95308142964234 1337.1879999999999Q133.88808142964234 1335.5359999999998 132.47208142964234 1334.5919999999999Q130.34808142964232 1333.0579999999998 130.17108142964233 1330.4029999999998Q129.99408142964234 1327.7479999999998 131.64608142964232 1325.7419999999997Q133.53408142964233 1323.4999999999998 136.18908142964233 1323.3229999999999Q138.84408142964233 1323.1459999999997 141.08608142964232 1324.7979999999998Q142.50208142964232 1325.86 144.6850814296423 1327.571Q146.86808142964233 1329.282 148.93308142964233 1330.875Q150.99808142964233 1332.4679999999998 152.0600814296423 1333.4119999999998Q154.30208142964233 1335.2999999999997 154.42008142964232 1338.0139999999997Q154.53808142964232 1340.7279999999998 152.53208142964235 1342.9699999999998Q150.76208142964234 1344.858 148.16608142964233 1344.9759999999999Q145.57008142964233 1345.0939999999998 143.32808142964234 1343.206Z" fill="#C56A38"/>
</svg>