<svg xmlns="http://www.w3.org/2000/svg" viewBox="0 0 1477.5 362.4" width="2400" height="589">
<rect x="0" y="0" width="1477.5" height="362.4" rx="46" fill="#FFFDF9"/><rect x="6" y="6" width="1465.5" height="350.4" rx="42" fill="none" stroke="#EADFCF" stroke-width="3"/><g transform="translate(96.000,84.000) scale(1.19105) translate(-44.667,-63.524) matrix(1.0730089,0.0,0.0,1.0125371,-3.5227983,26.142947)" fill="#C56A38"><path d="m 117.97965,197.87039 c -1.35431,-0.49122 -1.88344,-1.01411 -2.51733,-2.48762 -0.9272,-2.15533 -1.17736,-6.00443 -0.98313,-15.12684 0.24618,-11.56174 -0.22472,-17.66534 -1.96982,-25.53229 -2.18983,-9.87175 -6.14609,-16.27187 -10.05852,-16.27187 -3.736892,0 -7.452034,6.26874 -9.094632,15.34583 -1.328389,7.34075 -1.572286,13.62449 -1.222071,31.48542 0.139365,7.10763 -0.02976,8.8178 -1.075759,10.87765 -0.946654,1.86422 -3.74596,2.34819 -6.235599,1.07807 -3.453711,-1.76195 -7.178799,-7.96917 -9.977056,-16.62504 -1.122519,-3.4723 -2.761927,-9.76398 -4.953619,-19.01089 -4.429823,-18.68974 -7.988485,-31.03477 -13.703979,-47.53919 -3.03253,-8.75693 -4.046588,-12.16117 -4.420428,-14.839585 -0.09673,-0.693013 -0.285977,-1.328075 -0.420556,-1.41125 -0.134579,-0.08317 -1.210703,0.396083 -2.391389,1.065016 -1.180685,0.668933 -2.194358,1.168579 -2.252606,1.110335 -0.104282,-0.104282 2.98023,-2.211406 4.035739,-2.756937 0.539694,-0.278936 0.539896,-0.288814 0.07231,-3.540511 -0.257893,-1.793437 -0.501435,-3.397262 -0.541204,-3.564055 -0.04529,-0.18997 -0.961871,0.08796 -2.453556,0.743979 -3.124903,1.374286 -3.293487,1.426588 -2.513542,0.779809 0.363802,-0.301687 1.608537,-0.947067 2.766078,-1.434178 l 2.10462,-0.885656 0.02863,-5.138888 c 0.03422,-6.143006 0.412386,-8.250555 2.113166,-11.776856 0.847234,-1.756607 1.664557,-2.945139 3.032841,-4.410283 l 1.873055,-2.005649 -0.402944,-3.254734 c -0.50462,-4.076011 -0.507126,-6.362581 -0.01156,-10.548196 0.544497,-4.598915 1.824115,-9.013227 3.882221,-13.39253 l 0.885773,-1.884776 1.827431,0.3799 c 8.53117,1.773526 17.853077,7.346615 23.609617,14.114975 l 2.017022,2.371552 h 1.775165 c 2.308192,0 5.704309,0.445937 8.270227,1.085947 6.135575,1.530379 11.558125,5.853077 13.923415,11.099354 0.93324,2.069957 1.03463,2.520538 1.48158,6.584495 0.4643,4.221713 0.92863,4.996975 6.18368,10.324605 l 4.05481,4.110807 -0.12303,2.645833 c -0.23059,4.959277 -2.22875,10.099141 -5.02742,12.932027 -2.4031,2.43249 -4.76706,3.41223 -9.07694,3.76193 -2.68003,0.21746 -3.47864,0.0371 -3.82086,-0.86304 -0.14445,-0.37992 -0.20327,-0.75012 -0.13072,-0.82267 0.0725,-0.0726 1.11796,-0.22178 2.32314,-0.33163 1.45257,-0.13239 2.94916,-0.49162 4.43956,-1.06563 1.8829,-0.72518 2.50634,-1.1276 3.83582,-2.47595 1.80024,-1.825798 2.91723,-3.876795 3.33135,-6.116963 0.25565,-1.382956 0.23593,-1.559924 -0.20102,-1.8035 -0.83689,-0.466516 -3.29702,-2.910502 -3.68504,-3.66085 -0.51927,-1.004154 -0.47264,-1.184085 0.35627,-1.37461 0.40019,-0.09198 1.2958,-0.321513 1.99025,-0.510069 l 1.26264,-0.342828 -1.69894,-1.500862 C 114.89303,82.281443 112.53446,78.6858 111.58886,74.936462 110.0899,68.992985 108.65573,66.054155 105.90414,63.287609 102.61648,59.982093 98.825054,58.288538 93.551835,57.770089 91.930454,57.6106 89.78723,57.556074 88.789105,57.64884 l -1.814773,0.168666 -1.055975,-1.553221 c -1.485044,-2.184335 -5.96956,-6.53621 -8.901707,-8.638419 -2.935837,-2.104853 -7.317589,-4.414515 -9.847351,-5.19063 -2.913875,-0.893957 -2.885632,-0.906531 -3.950099,1.75864 -1.576174,3.946364 -1.91097,6.085218 -1.894757,12.104688 0.01336,4.961268 0.0604,5.456866 0.753358,7.9375 1.112444,3.982312 1.145634,3.618042 -0.394818,4.333295 -2.35896,1.095299 -5.211287,4.503357 -6.22041,7.43236 -0.490886,1.424805 -1.0162,8.291586 -0.77934,10.187345 L 54.87311,87.708792 55.7104,87.5364 c 6.806422,-1.401388 15.063714,-1.541439 19.268469,-0.326811 0.88161,0.254671 0.07168,0.293828 -4.550942,0.220018 -3.092881,-0.04939 -6.980986,0.04277 -8.640233,0.204786 -2.794745,0.272892 -6.650797,0.943019 -6.908351,1.200573 -0.136114,0.136114 0.470026,5.469384 0.655767,5.769919 0.07351,0.118937 0.271877,0.107299 0.440823,-0.02586 0.363404,-0.286428 3.878148,-1.460009 6.128007,-2.046155 3.050136,-0.794638 6.584343,-1.174179 10.583333,-1.136552 l 3.968749,0.03734 -3.736996,0.214604 c -4.730928,0.271683 -9.7368,1.357787 -15.379148,3.336753 -1.055026,0.370034 -1.918229,0.778489 -1.918229,0.907679 0,0.532149 1.14804,5.548076 1.770384,7.735026 0.367808,1.29249 1.438011,4.50718 2.378228,7.14375 3.752958,10.52409 6.104841,18.53581 11.465467,39.0573 0.43715,1.67349 1.79497,7.09083 3.01738,12.03854 3.850397,15.5845 6.231606,22.42502 9.324158,26.78558 1.217321,1.71645 1.800119,2.1863 2.711859,2.1863 1.493207,0 1.864806,-3.27425 1.681567,-14.81667 -0.147282,-9.27744 0.123425,-14.76028 0.988087,-20.01252 1.927254,-11.70675 5.566796,-18.85138 10.571855,-20.75315 1.475556,-0.56067 3.815266,-0.66252 5.360536,-0.23335 1.69218,0.46996 4.1862,2.37067 5.65288,4.30808 3.17783,4.19773 5.36367,10.30077 6.83943,19.09615 0.95842,5.71209 1.20741,8.98583 1.21745,16.00729 0.0115,8.04016 0.35154,13.89961 0.88005,15.16451 1.01336,2.42531 3.17101,1.61049 6.17577,-2.33222 3.05586,-4.00977 6.31596,-13.60077 10.92711,-32.14687 1.19695,-4.81414 2.30039,-8.86921 3.45583,-12.7 3.35338,-11.11787 6.25091,-22.28023 7.90238,-30.44287 3.88423,-19.198403 4.74005,-35.974356 2.25331,-44.169633 -2.0514,-6.760558 -7.10104,-10.878314 -15.28586,-12.464941 -6.86805,-1.331371 -16.68194,-0.73893 -23.28529,1.405677 l -1.80888,0.587478 -0.50034,-0.651086 c -0.27519,-0.358098 -0.503,-0.712283 -0.50623,-0.787079 -0.008,-0.188501 6.35728,-2.550866 8.48429,-3.148724 5.81254,-1.633781 14.07441,-1.997688 19.29107,-0.849705 7.81601,1.719997 13.24252,5.534792 16.00983,11.254787 2.33867,4.833997 3.03824,8.677005 3.03943,16.69665 0.003,18.018447 -3.42786,37.430876 -11.1039,62.834026 -1.91808,6.34774 -3.37621,11.5416 -5.57095,19.84375 -5.40189,20.43405 -8.09362,27.04738 -13.15307,32.31593 -2.52196,2.6262 -5.6223,3.82484 -7.82583,3.02561 z"/><path d="m 105.23102,82.433284 c -0.65667,-0.241754 -2.79039,-0.474095 -5.622112,-0.612193 -6.469163,-0.315489 -9.095194,-1.105413 -12.164616,-3.659182 -0.614889,-0.51159 -1.075903,-0.972241 -1.024474,-1.023669 0.05143,-0.05143 0.852176,0.203273 1.779438,0.566003 0.927263,0.36273 2.191595,0.789258 2.809627,0.947839 1.477258,0.379051 7.400393,0.7927 8.753008,0.611276 2.111029,-0.283148 5.845299,1.310264 6.666439,2.844562 0.3657,0.683328 0.0259,0.775676 -1.19731,0.325364 z"/></g><path d="M375.90442192714477 194.9780437538994Q358.6244219271448 194.9780437538994 348.3044219271448 192.3980437538994Q337.9844219271448 189.81804375389942 331.8644219271448 183.5780437538994Q330.1844219271448 184.77804375389942 327.66442192714476 186.6380437538994Q325.1444219271448 188.49804375389942 322.8644219271448 190.17804375389943Q320.5844219271448 191.8580437538994 319.3844219271448 192.6980437538994Q316.8644219271448 194.49804375389942 313.5644219271448 194.0180437538994Q310.2644219271448 193.53804375389942 308.5844219271448 190.77804375389942Q307.0244219271448 188.0180437538994 307.68442192714474 185.0180437538994Q308.34442192714477 182.0180437538994 311.1044219271448 180.4580437538994Q313.1444219271448 179.37804375389942 316.9844219271448 177.21804375389942Q320.8244219271448 175.05804375389943 323.7044219271448 173.49804375389942V148.65804375389942Q323.7044219271448 145.65804375389942 322.7444219271448 144.5780437538994Q321.78442192714476 143.49804375389942 318.90442192714477 143.49804375389942H313.1444219271448Q310.2644219271448 143.49804375389942 308.5244219271448 141.6380437538994Q306.78442192714476 139.77804375389942 306.78442192714476 137.1380437538994Q306.78442192714476 134.37804375389942 308.5244219271448 132.5180437538994Q310.2644219271448 130.65804375389942 313.1444219271448 130.65804375389942H324.3044219271448Q337.1444219271448 130.65804375389942 337.1444219271448 143.49804375389942V171.4580437538994Q340.2644219271448 175.17804375389943 344.6444219271448 177.4580437538994Q349.0244219271448 179.7380437538994 356.46442192714477 180.81804375389942Q363.90442192714477 181.89804375389943 375.90442192714477 181.89804375389943Q386.2244219271448 181.89804375389943 394.32442192714484 181.59804375389942Q402.4244219271448 181.2980437538994 409.0244219271448 180.81804375389942Q412.6244219271448 180.4580437538994 414.9644219271448 182.37804375389942Q417.3044219271448 184.2980437538994 417.3044219271448 187.4180437538994Q417.3044219271448 190.65804375389942 415.3844219271448 192.6980437538994Q413.46442192714477 194.7380437538994 409.2644219271448 194.8580437538994Q403.9844219271448 194.8580437538994 397.8044219271448 194.8580437538994Q391.6244219271448 194.8580437538994 385.8644219271448 194.9180437538994Q380.1044219271448 194.9780437538994 375.90442192714477 194.9780437538994ZM377.1044219271448 178.05804375389943Q374.1044219271448 178.05804375389943 372.0044219271448 176.1380437538994Q369.90442192714477 174.21804375389942 369.90442192714477 170.8580437538994V131.8580437538994H346.8644219271448Q343.8644219271448 131.8580437538994 342.0644219271448 129.87804375389942Q340.2644219271448 127.89804375389942 340.2644219271448 125.13804375389941Q340.2644219271448 122.37804375389942 342.0644219271448 120.45804375389942Q343.8644219271448 118.53804375389942 346.8644219271448 118.53804375389942H369.90442192714477V94.29804375389942Q369.90442192714477 91.05804375389943 372.0044219271448 89.13804375389942Q374.1044219271448 87.21804375389942 377.1044219271448 87.21804375389942Q380.1044219271448 87.21804375389942 382.1444219271448 89.13804375389942Q384.1844219271448 91.05804375389943 384.1844219271448 94.29804375389942V118.53804375389942H408.0644219271448Q411.0644219271448 118.53804375389942 412.8644219271448 120.45804375389942Q414.66442192714476 122.37804375389942 414.66442192714476 125.13804375389941Q414.66442192714476 127.89804375389942 412.8644219271448 129.87804375389942Q411.0644219271448 131.8580437538994 408.0644219271448 131.8580437538994H384.1844219271448V170.8580437538994Q384.1844219271448 174.21804375389942 382.1444219271448 176.1380437538994Q380.1044219271448 178.05804375389943 377.1044219271448 178.05804375389943ZM328.5044219271448 113.61804375389941Q326.8244219271448 111.81804375389942 324.2444219271448 109.59804375389942Q321.6644219271448 107.37804375389942 319.08442192714483 105.21804375389942Q316.5044219271448 103.05804375389943 314.46442192714477 101.61804375389941Q312.3044219271448 99.93804375389942 312.2444219271448 97.17804375389943Q312.1844219271448 94.41804375389943 313.8644219271448 92.49804375389942Q315.6644219271448 90.45804375389942 318.3044219271448 90.03804375389942Q320.9444219271448 89.61804375389941 323.34442192714477 91.29804375389942Q325.6244219271448 92.97804375389941 328.3844219271448 95.13804375389941Q331.1444219271448 97.29804375389942 333.7244219271448 99.45804375389942Q336.3044219271448 101.61804375389941 337.9844219271448 103.17804375389942Q340.2644219271448 105.09804375389942 340.2644219271448 108.03804375389942Q340.2644219271448 110.97804375389941 338.1044219271448 113.13804375389942Q336.1844219271448 115.29804375389942 333.3644219271448 115.47804375389941Q330.5444219271448 115.65804375389942 328.5044219271448 113.61804375389941ZM432.4244219271448 194.1380437538994Q429.5444219271448 194.1380437538994 427.9244219271448 192.3380437538994Q426.3044219271448 190.53804375389942 426.3044219271448 188.0180437538994Q426.3044219271448 185.49804375389942 427.9244219271448 183.75804375389941Q429.5444219271448 182.0180437538994 432.4244219271448 182.0180437538994H474.1844219271448V174.33804375389943H445.7444219271448Q442.9844219271448 174.33804375389943 441.3644219271448 172.59804375389942Q439.7444219271448 170.8580437538994 439.7444219271448 168.4580437538994Q439.7444219271448 166.05804375389943 441.3644219271448 164.25804375389941Q442.9844219271448 162.4580437538994 445.7444219271448 162.4580437538994H474.1844219271448V155.37804375389942H468.78442192714476Q458.8244219271448 155.37804375389942 454.80442192714474 152.0180437538994Q450.78442192714476 148.65804375389942 450.78442192714476 139.77804375389942Q450.78442192714476 130.8980437538994 454.80442192714474 127.6580437538994Q458.8244219271448 124.41804375389941 468.78442192714476 124.41804375389941H494.5844219271448Q504.54442192714475 124.41804375389941 508.5644219271448 127.6580437538994Q512.5844219271448 130.8980437538994 512.5844219271448 139.77804375389942Q512.5844219271448 148.65804375389942 508.5644219271448 152.0180437538994Q504.54442192714475 155.37804375389942 494.5844219271448 155.37804375389942H488.8244219271448V162.4580437538994H516.9044219271448Q519.6644219271448 162.4580437538994 521.2844219271448 164.25804375389941Q522.9044219271448 166.05804375389943 522.9044219271448 168.4580437538994Q522.9044219271448 170.8580437538994 521.2844219271448 172.59804375389942Q519.6644219271448 174.33804375389943 516.9044219271448 174.33804375389943H488.8244219271448V182.0180437538994H530.5844219271448Q533.3444219271448 182.0180437538994 535.0244219271448 183.75804375389941Q536.7044219271447 185.49804375389942 536.7044219271447 188.0180437538994Q536.7044219271447 190.53804375389942 535.0244219271448 192.3380437538994Q533.3444219271448 194.1380437538994 530.5844219271448 194.1380437538994ZM436.0244219271448 138.21804375389942Q432.78442192714476 138.21804375389942 430.80442192714474 136.29804375389944Q428.8244219271448 134.37804375389942 428.8244219271448 131.1380437538994V125.13804375389941Q428.8244219271448 115.05804375389941 433.80442192714474 111.03804375389942Q438.78442192714476 107.01804375389942 450.90442192714477 107.01804375389942H451.7444219271448Q451.2644219271448 106.17804375389942 450.1244219271448 104.37804375389942Q448.9844219271448 102.57804375389942 447.8444219271448 100.83804375389943Q446.7044219271448 99.09804375389942 446.2244219271448 98.37804375389942Q444.6644219271448 95.97804375389941 445.44442192714484 93.33804375389941Q446.2244219271448 90.69804375389941 448.6244219271448 89.25804375389941Q451.2644219271448 87.57804375389942 454.0844219271448 88.05804375389943Q456.90442192714477 88.53804375389942 458.46442192714477 90.69804375389941Q459.1844219271448 91.65804375389942 460.3844219271448 93.51804375389942Q461.5844219271448 95.37804375389942 462.66442192714476 97.11804375389943Q463.7444219271448 98.85804375389942 464.1044219271448 99.45804375389942Q466.5044219271448 103.53804375389942 463.9844219271448 107.01804375389942H473.9444219271448V93.21804375389942Q473.9444219271448 89.73804375389942 476.16442192714476 87.75804375389941Q478.3844219271448 85.77804375389942 481.5044219271448 85.77804375389942Q484.6244219271448 85.77804375389942 486.8444219271448 87.75804375389941Q489.0644219271448 89.73804375389942 489.0644219271448 93.21804375389942V107.01804375389942H499.6244219271448Q498.3044219271448 105.57804375389942 497.9444219271448 103.53804375389942Q497.5844219271448 101.49804375389942 498.66442192714476 99.57804375389942Q499.1444219271448 98.85804375389942 500.1044219271448 97.23804375389942Q501.0644219271448 95.61804375389941 502.0244219271448 93.99804375389942Q502.9844219271448 92.37804375389942 503.3444219271448 91.77804375389942Q504.78442192714476 89.13804375389942 507.54442192714475 88.23804375389942Q510.3044219271448 87.33804375389941 512.9444219271447 88.65804375389942Q515.7044219271448 90.09804375389942 516.6044219271448 92.79804375389942Q517.5044219271448 95.49804375389942 516.0644219271448 98.01804375389942Q515.7044219271448 98.61804375389941 514.8044219271449 100.17804375389942Q513.9044219271448 101.73804375389942 512.9444219271447 103.23804375389942Q511.9844219271448 104.73804375389942 511.6244219271448 105.45804375389942Q511.3844219271448 105.93804375389942 511.0244219271448 106.29804375389942Q510.66442192714476 106.65804375389942 510.3044219271448 107.01804375389942H512.3444219271448Q524.4644219271448 107.01804375389942 529.4444219271447 111.03804375389942Q534.4244219271447 115.05804375389941 534.4244219271447 125.13804375389941V130.65804375389942Q534.4244219271447 133.8980437538994 532.4444219271447 135.81804375389942Q530.4644219271448 137.73804375389943 527.2244219271448 137.73804375389943Q523.9844219271448 137.73804375389943 522.0044219271448 135.81804375389942Q520.0244219271448 133.8980437538994 520.0244219271448 130.65804375389942V125.61804375389943Q520.0244219271448 121.53804375389942 518.3444219271448 120.27804375389942Q516.6644219271448 119.01804375389942 511.7444219271448 119.01804375389942H451.5044219271448Q446.5844219271448 119.01804375389942 444.90442192714477 120.27804375389942Q443.2244219271448 121.53804375389942 443.2244219271448 125.61804375389943V131.1380437538994Q443.2244219271448 134.37804375389942 441.2444219271448 136.29804375389944Q439.2644219271448 138.21804375389942 436.0244219271448 138.21804375389942ZM470.8244219271448 144.09804375389942H492.54442192714475Q496.0244219271448 144.09804375389942 497.34442192714477 143.25804375389941Q498.66442192714476 142.4180437538994 498.66442192714476 139.77804375389942Q498.66442192714476 137.25804375389941 497.34442192714477 136.4180437538994Q496.0244219271448 135.5780437538994 492.54442192714475 135.5780437538994H470.8244219271448Q467.34442192714477 135.5780437538994 466.0244219271448 136.4180437538994Q464.7044219271448 137.25804375389941 464.7044219271448 139.77804375389942Q464.7044219271448 142.4180437538994 466.0244219271448 143.25804375389941Q467.34442192714477 144.09804375389942 470.8244219271448 144.09804375389942ZM583.5044219271448 190.4180437538994Q580.6244219271448 190.05804375389943 578.8244219271448 187.71804375389942Q577.0244219271448 185.37804375389942 577.3844219271448 182.37804375389942Q577.7444219271448 179.37804375389942 580.0844219271448 177.5780437538994Q582.4244219271447 175.77804375389942 585.4244219271447 176.1380437538994Q589.1444219271448 176.61804375389943 592.0844219271448 176.31804375389942Q595.0244219271448 176.0180437538994 597.1844219271447 173.8580437538994Q599.3444219271448 171.6980437538994 601.0244219271449 166.7780437538994Q602.7044219271448 161.8580437538994 603.9044219271448 153.21804375389942Q604.9844219271448 145.65804375389942 604.0844219271448 141.3980437538994Q603.1844219271447 137.1380437538994 599.5844219271448 135.5180437538994Q595.9844219271448 133.8980437538994 588.9044219271448 134.37804375389942Q586.0244219271448 144.21804375389942 582.0044219271448 154.05804375389943Q577.9844219271448 163.8980437538994 573.1844219271447 172.7180437538994Q568.3844219271448 181.53804375389942 562.7444219271448 188.61804375389943Q560.8244219271448 190.89804375389943 557.9444219271447 191.31804375389942Q555.0644219271447 191.7380437538994 552.6644219271448 189.93804375389942Q550.3844219271448 188.0180437538994 549.9644219271447 185.0780437538994Q549.5444219271448 182.1380437538994 551.4644219271448 179.8580437538994Q558.5444219271448 171.21804375389942 564.3044219271447 159.5780437538994Q570.0644219271447 147.93804375389942 574.0244219271448 135.5780437538994Q570.3044219271447 136.05804375389943 566.4044219271448 136.4780437538994Q562.5044219271448 136.8980437538994 558.7844219271448 137.25804375389941Q555.7844219271448 137.49804375389942 553.5044219271448 135.6980437538994Q551.2244219271448 133.8980437538994 550.8644219271448 130.8980437538994Q550.6244219271448 127.89804375389942 552.4244219271447 125.55804375389943Q554.2244219271448 123.21804375389942 557.2244219271448 122.97804375389941Q562.3844219271448 122.37804375389942 567.6644219271448 121.95804375389942Q572.9444219271447 121.53804375389942 577.9844219271448 121.29804375389942Q579.3044219271447 115.89804375389942 580.0244219271448 110.67804375389942Q580.7444219271448 105.45804375389942 580.9844219271448 100.65804375389942Q581.2244219271448 97.65804375389942 583.4444219271447 95.67804375389942Q585.6644219271448 93.69804375389941 588.6644219271448 93.93804375389942Q591.6644219271448 94.05804375389943 593.6444219271448 96.27804375389942Q595.6244219271448 98.49804375389942 595.3844219271448 101.49804375389942Q594.9044219271448 105.93804375389942 594.1844219271447 110.73804375389942Q593.4644219271448 115.53804375389942 592.3844219271448 120.57804375389942Q608.7044219271448 120.81804375389942 614.5244219271449 129.3380437538994Q620.3444219271448 137.8580437538994 617.9444219271447 155.1380437538994Q616.0244219271448 170.0180437538994 611.7644219271448 178.17804375389943Q607.5044219271448 186.33804375389943 600.5444219271449 189.03804375389942Q593.5844219271448 191.7380437538994 583.5044219271448 190.4180437538994ZM650.4644219271448 155.1380437538994Q647.8244219271448 156.5780437538994 644.9444219271448 155.7380437538994Q642.0644219271448 154.8980437538994 640.6244219271448 152.25804375389941Q638.5844219271448 148.4180437538994 635.4644219271448 144.1580437538994Q632.3444219271448 139.8980437538994 629.0444219271449 135.87804375389942Q625.7444219271448 131.8580437538994 622.7444219271448 128.9780437538994Q620.5844219271448 126.93804375389942 620.4644219271448 123.99804375389942Q620.3444219271448 121.05804375389941 622.3844219271448 118.89804375389942Q624.4244219271447 116.73804375389942 627.3644219271448 116.67804375389942Q630.3044219271447 116.61804375389941 632.4644219271448 118.65804375389942Q636.3044219271447 122.25804375389941 640.2044219271447 126.87804375389942Q644.1044219271448 131.49804375389942 647.5244219271448 136.29804375389944Q650.9444219271447 141.09804375389942 653.2244219271448 145.4180437538994Q654.6644219271448 148.05804375389943 653.8844219271448 150.87804375389942Q653.1044219271448 153.6980437538994 650.4644219271448 155.1380437538994ZM640.3844219271448 119.01804375389942Q638.8244219271448 117.45804375389942 636.4844219271448 115.23804375389942Q634.1444219271448 113.01804375389942 632.1044219271448 111.33804375389941Q630.9044219271448 110.25804375389941 630.7244219271447 108.33804375389943Q630.5444219271448 106.41804375389943 631.8644219271448 104.85804375389942Q633.1844219271447 103.29804375389942 635.0444219271448 103.17804375389943Q636.9044219271448 103.05804375389943 638.4644219271448 104.01804375389942Q640.5044219271448 105.21804375389942 643.2044219271447 107.43804375389942Q645.9044219271448 109.65804375389942 647.7044219271448 111.45804375389942Q649.2644219271448 113.01804375389942 649.2644219271448 115.11804375389943Q649.2644219271448 117.21804375389942 647.8244219271448 118.89804375389942Q646.3844219271448 120.45804375389942 644.1644219271448 120.51804375389942Q641.9444219271447 120.57804375389942 640.3844219271448 119.01804375389942ZM650.4644219271448 107.73804375389942Q648.7844219271448 106.29804375389942 646.2044219271447 104.25804375389941Q643.6244219271448 102.21804375389942 641.5844219271448 100.65804375389942Q640.3844219271448 99.57804375389942 640.0844219271448 97.65804375389942Q639.7844219271448 95.73804375389942 640.9844219271448 94.17804375389942Q642.0644219271448 92.61804375389941 643.9244219271447 92.31804375389942Q645.7844219271448 92.01804375389942 647.4644219271448 92.97804375389941Q649.5044219271448 94.05804375389943 652.3844219271448 96.03804375389942Q655.2644219271448 98.01804375389942 657.1844219271447 99.69804375389941Q658.8644219271448 101.13804375389942 658.9844219271448 103.29804375389942Q659.1044219271448 105.45804375389942 657.7844219271448 107.13804375389942Q656.5844219271448 108.81804375389942 654.3644219271448 109.05804375389943Q652.1444219271448 109.29804375389942 650.4644219271448 107.73804375389942ZM725.3444219271448 192.6980437538994Q710.9444219271447 192.6980437538994 702.7244219271447 185.55804375389943Q694.5044219271448 178.4180437538994 694.5044219271448 162.5780437538994V98.61804375389941Q694.5044219271448 95.61804375389941 696.6044219271448 93.51804375389942Q698.7044219271448 91.41804375389943 701.7044219271448 91.41804375389943Q704.7044219271448 91.41804375389943 706.8044219271449 93.51804375389942Q708.9044219271448 95.61804375389941 708.9044219271448 98.61804375389941V162.5780437538994Q708.9044219271448 171.4580437538994 712.9244219271447 174.93804375389942Q716.9444219271447 178.4180437538994 725.3444219271448 178.4180437538994Q732.7844219271448 178.4180437538994 739.3244219271448 174.4580437538994Q745.8644219271448 170.49804375389942 749.9444219271447 161.7380437538994Q751.2644219271448 158.9780437538994 754.1444219271448 158.0180437538994Q757.0244219271448 157.05804375389943 759.6644219271448 158.37804375389942Q762.4244219271447 159.5780437538994 763.3244219271448 162.4580437538994Q764.2244219271448 165.33804375389943 763.0244219271448 168.09804375389942Q757.7444219271448 179.9780437538994 747.6044219271448 186.3380437538994Q737.4644219271448 192.6980437538994 725.3444219271448 192.6980437538994ZM746.2244219271448 116.61804375389941Q744.6644219271448 114.93804375389942 742.3244219271448 112.71804375389942Q739.9844219271448 110.49804375389942 737.9444219271447 108.81804375389942Q736.7444219271448 107.73804375389942 736.5644219271448 105.81804375389942Q736.3844219271448 103.89804375389942 737.5844219271448 102.33804375389941Q738.9044219271448 100.89804375389942 740.7644219271448 100.71804375389942Q742.6244219271448 100.53804375389942 744.3044219271447 101.49804375389942Q746.2244219271448 102.69804375389941 748.9244219271447 104.85804375389941Q751.6244219271448 107.01804375389942 753.5444219271448 108.93804375389942Q755.1044219271448 110.49804375389942 755.1044219271448 112.59804375389942Q755.1044219271448 114.69804375389941 753.6644219271448 116.37804375389942Q752.2244219271448 117.93804375389942 750.0644219271448 118.05804375389943Q747.9044219271448 118.17804375389942 746.2244219271448 116.61804375389941ZM742.8644219271448 127.65804375389942Q741.4244219271447 129.09804375389942 739.2044219271447 129.03804375389942Q736.9844219271448 128.9780437538994 735.5444219271448 127.29804375389942Q734.1044219271448 125.61804375389943 731.8844219271448 123.21804375389942Q729.6644219271448 120.81804375389942 727.7444219271448 119.01804375389942Q726.5444219271448 117.81804375389942 726.4844219271447 115.89804375389942Q726.4244219271447 113.97804375389941 727.8644219271448 112.53804375389942Q729.1844219271447 111.21804375389942 731.1044219271448 111.09804375389942Q733.0244219271448 110.97804375389941 734.5844219271448 112.17804375389942Q736.5044219271448 113.49804375389942 739.0844219271448 115.83804375389943Q741.6644219271448 118.17804375389942 743.3444219271448 120.21804375389942Q744.6644219271448 121.77804375389942 744.6044219271448 123.93804375389942Q744.5444219271448 126.09804375389942 742.8644219271448 127.65804375389942ZM830.8244219271448 198.33804375389943Q829.0244219271448 196.53804375389942 829.1444219271448 193.8380437538994Q829.2644219271448 191.1380437538994 831.1844219271447 189.33804375389943Q834.3044219271447 186.21804375389942 836.5844219271448 182.1380437538994Q832.1444219271448 179.61804375389943 828.8444219271448 175.17804375389943Q825.5444219271448 170.7380437538994 824.2244219271448 164.61804375389943Q823.6244219271448 162.21804375389942 824.8244219271448 159.99804375389942Q826.0244219271448 157.77804375389942 828.4244219271447 157.17804375389943Q830.8244219271448 156.4580437538994 833.0444219271449 157.7180437538994Q835.2644219271448 158.9780437538994 835.7444219271448 161.49804375389942Q837.1844219271447 167.61804375389943 841.1444219271448 170.8580437538994Q842.8244219271448 164.61804375389943 843.3644219271448 157.59804375389942Q843.9044219271448 150.5780437538994 843.3044219271447 143.49804375389942Q836.8244219271448 145.05804375389943 831.0644219271448 149.49804375389942Q825.3044219271447 153.93804375389942 821.6444219271448 160.53804375389942Q817.9844219271448 167.1380437538994 817.5044219271448 175.17804375389943Q817.3844219271448 177.4580437538994 815.7044219271447 178.8380437538994Q814.0244219271448 180.21804375389942 811.6244219271448 180.33804375389943Q809.2244219271448 180.33804375389943 807.6044219271448 178.77804375389942Q805.9844219271448 177.21804375389942 805.7444219271448 174.6980437538994Q805.2644219271448 170.1380437538994 804.9044219271448 164.7980437538994Q804.5444219271448 159.4580437538994 804.3644219271448 153.93804375389942Q804.1844219271447 148.4180437538994 804.1844219271447 143.55804375389943Q804.1844219271447 138.6980437538994 804.3044219271447 135.33804375389943Q804.4244219271447 132.6980437538994 806.2244219271447 130.9580437538994Q808.0244219271448 129.21804375389942 810.6644219271448 129.4580437538994Q813.3044219271447 129.5780437538994 814.8644219271448 131.43804375389942Q816.4244219271447 133.29804375389944 816.1844219271447 136.05804375389943Q816.0644219271448 138.5780437538994 816.0044219271448 142.53804375389942Q815.9444219271447 146.49804375389942 815.9444219271447 151.05804375389943Q820.6244219271448 143.73804375389943 827.2844219271448 138.75804375389941Q833.9444219271447 133.77804375389942 841.6244219271448 131.8580437538994Q840.5444219271448 126.93804375389942 839.1044219271448 122.61804375389941Q838.2644219271448 120.09804375389942 839.4044219271448 117.75804375389941Q840.5444219271448 115.41804375389943 843.0644219271447 114.57804375389942Q845.5844219271448 113.73804375389942 847.8644219271448 114.93804375389942Q850.1444219271448 116.13804375389942 850.9844219271448 118.65804375389942Q851.9444219271447 121.65804375389942 852.7244219271447 124.71804375389942Q853.5044219271448 127.77804375389942 854.1044219271448 131.1380437538994Q861.4244219271447 131.8580437538994 867.0044219271448 135.3980437538994Q872.5844219271448 138.93804375389942 875.7644219271448 144.6380437538994Q878.9444219271447 150.33804375389943 878.9444219271447 157.65804375389942Q878.9444219271447 166.4180437538994 874.9244219271447 172.7180437538994Q870.9044219271448 179.0180437538994 864.3644219271448 182.31804375389942Q857.8244219271448 185.61804375389943 850.2644219271448 185.61804375389943H848.7044219271448Q846.9044219271448 189.33804375389943 844.7444219271448 192.5780437538994Q842.5844219271448 195.81804375389942 839.8244219271448 198.33804375389943Q837.9044219271448 200.25804375389941 835.3244219271448 200.1980437538994Q832.7444219271448 200.1380437538994 830.8244219271448 198.33804375389943ZM852.7844219271448 173.7380437538994Q858.6644219271448 172.89804375389943 862.7444219271448 168.75804375389941Q866.8244219271448 164.61804375389943 866.8244219271448 157.65804375389942Q866.8244219271448 152.0180437538994 863.8844219271448 148.2380437538994Q860.9444219271447 144.4580437538994 855.4244219271447 143.1380437538994Q856.0244219271448 150.93804375389942 855.3644219271448 158.79804375389944Q854.7044219271448 166.65804375389942 852.7844219271448 173.7380437538994ZM948.4244219271447 194.7380437538994Q938.5844219271448 194.7380437538994 932.5844219271448 190.11804375389943Q926.5844219271448 185.49804375389942 926.5844219271448 176.37804375389942Q926.5844219271448 168.21804375389942 932.6444219271448 163.29804375389944Q938.7044219271448 158.37804375389942 948.9044219271448 158.37804375389942Q952.5044219271448 158.37804375389942 956.1044219271448 158.73804375389943L955.7444219271448 145.17804375389943Q943.2644219271448 145.53804375389942 933.6644219271448 145.17804375389943Q930.6644219271448 144.93804375389942 928.8044219271447 142.71804375389942Q926.9444219271447 140.49804375389942 927.0644219271447 137.61804375389943Q927.3044219271447 134.73804375389943 929.5244219271448 132.81804375389942Q931.7444219271448 130.8980437538994 934.6244219271448 131.1380437538994Q939.1844219271447 131.37804375389942 944.5244219271448 131.43804375389942Q949.8644219271448 131.49804375389942 955.3844219271448 131.37804375389942Q955.2644219271448 128.49804375389942 955.2644219271448 125.61804375389943Q955.2644219271448 122.73804375389942 955.1444219271448 119.97804375389941Q949.2644219271448 120.09804375389942 943.7444219271448 120.03804375389942Q938.2244219271448 119.97804375389941 933.6644219271448 119.85804375389942Q930.6644219271448 119.73804375389942 928.8044219271447 117.51804375389942Q926.9444219271447 115.29804375389942 927.0644219271447 112.29804375389942Q927.3044219271447 109.41804375389943 929.5244219271448 107.49804375389942Q931.7444219271448 105.57804375389942 934.6244219271448 105.81804375389942Q943.5044219271448 106.41804375389943 954.9044219271448 106.17804375389942V95.85804375389942Q954.9044219271448 92.85804375389942 956.9444219271447 90.75804375389941Q958.9844219271448 88.65804375389942 961.9844219271448 88.65804375389942Q964.9844219271448 88.65804375389942 967.0844219271448 90.75804375389941Q969.1844219271447 92.85804375389942 969.1844219271447 95.85804375389942Q969.1844219271447 98.01804375389942 969.1844219271447 100.47804375389941Q969.1844219271447 102.93804375389942 969.3044219271447 105.69804375389941Q974.2244219271448 105.33804375389941 978.7844219271449 104.91804375389941Q983.3444219271448 104.49804375389942 987.0644219271448 104.01804375389942Q989.9444219271447 103.65804375389942 992.2844219271448 105.39804375389943Q994.6244219271448 107.13804375389942 994.9844219271448 110.01804375389942Q995.3444219271448 113.01804375389942 993.6044219271448 115.35804375389941Q991.8644219271448 117.69804375389941 988.9844219271448 118.05804375389941Q984.7844219271448 118.53804375389942 979.8044219271449 118.89804375389942Q974.8244219271448 119.25804375389941 969.5444219271448 119.49804375389942Q969.5444219271448 122.25804375389941 969.6044219271448 125.13804375389941Q969.6644219271448 128.0180437538994 969.7844219271448 130.8980437538994Q974.5844219271448 130.65804375389942 978.9644219271448 130.23804375389943Q983.3444219271448 129.81804375389942 987.0644219271448 129.33804375389943Q989.9444219271447 128.8580437538994 992.2844219271448 130.6580437538994Q994.6244219271448 132.4580437538994 994.9844219271448 135.33804375389943Q995.3444219271448 138.21804375389942 993.6044219271448 140.55804375389943Q991.8644219271448 142.8980437538994 988.9844219271448 143.25804375389941Q984.9044219271448 143.73804375389943 980.1044219271448 144.09804375389942Q975.3044219271447 144.4580437538994 970.0244219271448 144.6980437538994Q970.2644219271448 149.49804375389942 970.3244219271448 153.81804375389942Q970.3844219271448 158.1380437538994 970.5044219271448 161.8580437538994Q977.4644219271448 163.8980437538994 983.7044219271447 166.8980437538994Q989.9444219271447 169.8980437538994 994.7444219271448 173.25804375389941Q997.1444219271448 174.81804375389942 997.6844219271447 177.81804375389942Q998.2244219271448 180.81804375389942 996.5444219271448 183.21804375389942Q994.8644219271448 185.61804375389943 991.9244219271447 186.15804375389942Q988.9844219271448 186.6980437538994 986.5844219271448 185.0180437538994Q983.2244219271448 182.61804375389943 979.1444219271448 180.39804375389943Q975.0644219271448 178.17804375389943 970.6244219271448 176.37804375389942Q970.1444219271448 185.8580437538994 964.3844219271448 190.2980437538994Q958.6244219271448 194.7380437538994 948.4244219271447 194.7380437538994ZM948.3044219271447 181.17804375389943Q953.2244219271448 181.17804375389943 954.7844219271449 179.43804375389942Q956.3444219271448 177.6980437538994 956.3444219271448 174.4580437538994V172.17804375389943Q952.2644219271448 171.4580437538994 948.3044219271447 171.4580437538994Q944.4644219271448 171.4580437538994 942.6644219271448 172.7780437538994Q940.8644219271448 174.09804375389942 940.8644219271448 176.37804375389942Q940.8644219271448 181.17804375389943 948.3044219271447 181.17804375389943ZM1081.1444219271448 192.6980437538994Q1070.2244219271447 192.4580437538994 1063.9244219271447 187.4180437538994Q1057.6244219271448 182.37804375389942 1057.8644219271448 173.61804375389943Q1058.1044219271448 168.4580437538994 1060.8044219271449 164.61804375389943Q1063.504421927145 160.77804375389942 1068.1844219271447 158.79804375389944Q1072.8644219271448 156.81804375389942 1078.8644219271448 157.4180437538994Q1088.4644219271447 158.25804375389941 1092.3044219271446 163.9580437538994Q1096.1444219271448 169.65804375389942 1094.5844219271448 176.9780437538994Q1098.7844219271449 174.93804375389942 1101.484421927145 171.03804375389942Q1104.1844219271447 167.1380437538994 1104.1844219271447 160.8980437538994Q1104.1844219271447 156.21804375389942 1101.484421927145 152.43804375389942Q1098.7844219271449 148.65804375389942 1093.924421927145 146.55804375389943Q1089.0644219271448 144.4580437538994 1082.7044219271447 144.81804375389942Q1076.3444219271448 145.17804375389943 1069.0244219271449 148.59804375389942Q1061.7044219271447 152.0180437538994 1054.0244219271449 159.4580437538994Q1051.8644219271448 161.49804375389942 1048.6244219271448 161.43804375389942Q1045.3844219271448 161.37804375389942 1043.3444219271448 158.9780437538994Q1041.4244219271447 156.6980437538994 1041.6044219271448 153.75804375389941Q1041.7844219271449 150.81804375389942 1044.0644219271448 149.1380437538994Q1051.504421927145 143.49804375389942 1058.944421927145 137.1980437538994Q1066.3844219271448 130.8980437538994 1073.1644219271448 124.77804375389941Q1079.9444219271447 118.65804375389942 1085.1044219271448 113.61804375389941Q1088.3444219271448 110.49804375389942 1087.3244219271448 108.45804375389943Q1086.3044219271449 106.41804375389943 1082.1044219271448 107.01804375389942Q1078.0244219271449 107.49804375389942 1072.8044219271449 108.21804375389942Q1067.5844219271448 108.93804375389942 1063.0244219271449 109.53804375389942Q1060.1444219271448 110.01804375389942 1057.7444219271447 108.21804375389942Q1055.3444219271448 106.41804375389943 1054.9844219271447 103.41804375389943Q1054.504421927145 100.53804375389942 1056.3044219271449 98.19804375389941Q1058.1044219271448 95.85804375389942 1061.1044219271448 95.37804375389942Q1063.7444219271447 95.01804375389942 1067.7644219271447 94.65804375389942Q1071.7844219271449 94.29804375389942 1076.0444219271449 93.93804375389942Q1080.3044219271449 93.57804375389942 1083.3044219271449 93.33804375389941Q1091.1044219271448 92.73804375389942 1096.0244219271449 95.37804375389942Q1100.9444219271447 98.01804375389942 1102.7444219271447 102.51804375389942Q1104.5444219271449 107.01804375389942 1102.924421927145 112.29804375389942Q1101.3044219271449 117.57804375389942 1096.0244219271449 122.25804375389941Q1093.6244219271448 124.29804375389942 1089.964421927145 127.53804375389942Q1086.3044219271449 130.77804375389942 1082.4644219271447 134.1380437538994Q1089.3044219271449 132.81804375389942 1095.7844219271446 133.9580437538994Q1102.2644219271447 135.09804375389942 1107.3644219271446 138.5780437538994Q1112.4644219271447 142.05804375389943 1115.4644219271447 147.75804375389941Q1118.4644219271447 153.4580437538994 1118.4644219271447 161.1380437538994Q1118.4644219271447 172.05804375389943 1113.6644219271448 179.1980437538994Q1108.8644219271448 186.33804375389943 1100.464421927145 189.6380437538994Q1092.0644219271448 192.93804375389942 1081.1444219271448 192.6980437538994ZM1078.9844219271447 179.37804375389942Q1079.2244219271447 179.37804375389942 1079.7044219271447 179.37804375389942Q1080.0644219271448 179.37804375389942 1080.6044219271448 179.43804375389942Q1081.1444219271448 179.49804375389942 1081.8644219271448 179.37804375389942Q1083.5444219271449 175.4180437538994 1082.464421927145 172.7780437538994Q1081.3844219271448 170.1380437538994 1078.1444219271448 169.65804375389942Q1075.264421927145 169.2980437538994 1073.404421927145 170.43804375389942Q1071.5444219271449 171.5780437538994 1071.3044219271449 174.09804375389942Q1071.1844219271447 178.8980437538994 1078.9844219271447 179.37804375389942ZM1182.184421927145 196.53804375389942Q1171.6244219271448 196.53804375389942 1165.6244219271448 194.43804375389942Q1159.6244219271448 192.33804375389943 1157.2244219271447 186.93804375389942Q1154.8244219271448 181.53804375389942 1154.8244219271448 171.6980437538994V133.65804375389942Q1154.8244219271448 130.8980437538994 1156.8044219271449 128.9180437538994Q1158.7844219271449 126.93804375389942 1161.5444219271449 126.93804375389942Q1164.3044219271449 126.93804375389942 1166.2844219271449 128.9180437538994Q1168.264421927145 130.8980437538994 1168.264421927145 133.65804375389942V171.6980437538994Q1168.264421927145 176.9780437538994 1169.5244219271449 179.79804375389944Q1170.7844219271449 182.61804375389943 1173.7844219271449 183.6380437538994Q1176.7844219271449 184.65804375389942 1182.184421927145 184.65804375389942H1220.704421927145Q1226.1044219271448 184.65804375389942 1229.1644219271448 183.6380437538994Q1232.224421927145 182.61804375389943 1233.424421927145 179.79804375389944Q1234.6244219271448 176.9780437538994 1234.6244219271448 171.6980437538994V133.53804375389942Q1234.6244219271448 130.77804375389942 1236.6044219271448 128.73804375389943Q1238.5844219271448 126.69804375389941 1241.3444219271448 126.69804375389941Q1244.1044219271448 126.69804375389941 1246.0844219271448 128.73804375389943Q1248.0644219271448 130.77804375389942 1248.0644219271448 133.53804375389942V171.6980437538994Q1248.0644219271448 181.53804375389942 1245.6644219271448 186.93804375389942Q1243.264421927145 192.33804375389943 1237.324421927145 194.43804375389942Q1231.384421927145 196.53804375389942 1220.704421927145 196.53804375389942ZM1150.8644219271448 125.13804375389941Q1148.464421927145 125.13804375389941 1146.7844219271449 123.39804375389942Q1145.1044219271448 121.65804375389942 1145.1044219271448 119.37804375389942Q1145.1044219271448 116.97804375389941 1146.7844219271449 115.2980437538994Q1148.464421927145 113.61804375389941 1150.8644219271448 113.61804375389941H1167.3044219271449V96.21804375389942Q1167.3044219271449 93.09804375389942 1169.344421927145 91.23804375389942Q1171.384421927145 89.37804375389942 1174.144421927145 89.37804375389942Q1177.0244219271449 89.37804375389942 1179.004421927145 91.23804375389942Q1180.984421927145 93.09804375389942 1180.984421927145 96.21804375389942V113.61804375389941H1195.6244219271448V91.89804375389942Q1195.6244219271448 88.77804375389942 1197.6644219271448 86.97804375389941Q1199.704421927145 85.17804375389942 1202.464421927145 85.17804375389942Q1205.224421927145 85.17804375389942 1207.204421927145 86.97804375389941Q1209.184421927145 88.77804375389942 1209.184421927145 91.89804375389942V95.25804375389941H1240.0244219271449Q1242.424421927145 95.25804375389941 1244.164421927145 96.99804375389942Q1245.904421927145 98.73804375389942 1245.904421927145 101.13804375389942Q1245.904421927145 103.53804375389942 1244.164421927145 105.27804375389942Q1242.424421927145 107.01804375389942 1240.0244219271449 107.01804375389942H1209.184421927145V113.61804375389941H1251.664421927145Q1254.0644219271448 113.61804375389941 1255.6844219271447 115.2980437538994Q1257.3044219271449 116.97804375389941 1257.3044219271449 119.37804375389942Q1257.3044219271449 121.65804375389942 1255.6844219271447 123.39804375389942Q1254.0644219271448 125.13804375389941 1251.664421927145 125.13804375389941ZM1201.504421927145 183.6980437538994Q1198.8644219271448 183.6980437538994 1197.1244219271448 182.0180437538994Q1195.384421927145 180.33804375389943 1195.384421927145 177.5780437538994V165.09804375389942Q1192.144421927145 168.4580437538994 1188.364421927145 171.81804375389942Q1184.5844219271448 175.17804375389943 1181.224421927145 177.6980437538994Q1178.944421927145 179.37804375389942 1176.304421927145 179.55804375389943Q1173.664421927145 179.7380437538994 1171.744421927145 177.4580437538994Q1170.184421927145 175.4180437538994 1170.424421927145 172.7780437538994Q1170.664421927145 170.1380437538994 1172.944421927145 168.5780437538994Q1176.664421927145 166.05804375389943 1180.864421927145 162.81804375389942Q1185.0644219271448 159.5780437538994 1188.3044219271449 156.4580437538994H1176.3044219271449Q1174.0244219271449 156.4580437538994 1172.344421927145 154.7780437538994Q1170.664421927145 153.09804375389942 1170.664421927145 150.81804375389942Q1170.664421927145 148.4180437538994 1172.344421927145 146.79804375389944Q1174.0244219271449 145.17804375389943 1176.3044219271449 145.17804375389943H1182.0644219271448Q1180.8644219271448 144.4580437538994 1180.144421927145 143.25804375389941Q1179.7844219271449 142.53804375389942 1178.8244219271448 141.09804375389942Q1177.8644219271448 139.65804375389942 1176.964421927145 138.15804375389942Q1176.0644219271448 136.65804375389942 1175.464421927145 135.81804375389942Q1174.264421927145 133.77804375389942 1174.984421927145 131.61804375389943Q1175.704421927145 129.4580437538994 1177.744421927145 128.37804375389942Q1179.904421927145 127.29804375389942 1182.0644219271448 127.77804375389942Q1184.224421927145 128.25804375389941 1185.5444219271449 130.29804375389944Q1186.0244219271449 130.8980437538994 1186.984421927145 132.4580437538994Q1187.944421927145 134.0180437538994 1188.964421927145 135.5780437538994Q1189.984421927145 137.1380437538994 1190.3444219271448 137.8580437538994Q1191.424421927145 139.8980437538994 1190.764421927145 141.87804375389942Q1190.1044219271448 143.8580437538994 1188.0644219271448 145.17804375389943H1195.384421927145V132.81804375389942Q1195.384421927145 129.93804375389942 1197.1244219271448 128.31804375389942Q1198.8644219271448 126.69804375389941 1201.504421927145 126.69804375389941Q1204.0244219271449 126.69804375389941 1205.764421927145 128.31804375389942Q1207.504421927145 129.93804375389942 1207.504421927145 132.81804375389942V145.17804375389943H1213.504421927145Q1212.5444219271449 144.09804375389942 1212.3044219271449 142.4780437538994Q1212.0644219271448 140.8580437538994 1212.7844219271449 139.4180437538994Q1213.6244219271448 137.8580437538994 1215.0644219271448 134.9780437538994Q1216.504421927145 132.09804375389942 1217.224421927145 130.77804375389942Q1218.3044219271449 128.61804375389943 1220.5244219271449 127.83804375389943Q1222.744421927145 127.05804375389943 1225.0244219271449 128.1380437538994Q1227.184421927145 129.09804375389942 1228.0244219271449 131.31804375389942Q1228.8644219271448 133.53804375389942 1227.7844219271449 135.5780437538994Q1227.0644219271448 136.8980437538994 1225.5644219271448 139.6580437538994Q1224.0644219271448 142.4180437538994 1223.1044219271448 143.73804375389943Q1222.8644219271448 144.09804375389942 1222.5644219271448 144.5180437538994Q1222.264421927145 144.93804375389942 1221.904421927145 145.17804375389943H1226.3444219271448Q1228.744421927145 145.17804375389943 1230.364421927145 146.79804375389944Q1231.984421927145 148.4180437538994 1231.984421927145 150.81804375389942Q1231.984421927145 153.09804375389942 1230.364421927145 154.7780437538994Q1228.744421927145 156.4580437538994 1226.3444219271448 156.4580437538994H1214.704421927145Q1218.184421927145 159.5780437538994 1222.5644219271448 162.93804375389942Q1226.944421927145 166.2980437538994 1230.5444219271449 168.6980437538994Q1232.5844219271448 170.0180437538994 1232.8244219271448 172.59804375389942Q1233.0644219271448 175.17804375389943 1231.6244219271448 177.09804375389942Q1229.8244219271448 179.37804375389942 1227.244421927145 179.55804375389943Q1224.664421927145 179.7380437538994 1222.384421927145 178.05804375389943Q1218.904421927145 175.4180437538994 1214.884421927145 171.87804375389942Q1210.8644219271448 168.33804375389943 1207.504421927145 164.7380437538994V177.5780437538994Q1207.504421927145 180.33804375389943 1205.764421927145 182.0180437538994Q1204.0244219271449 183.6980437538994 1201.504421927145 183.6980437538994ZM1294.384421927145 197.61804375389943Q1291.6244219271448 197.61804375389943 1289.5844219271448 195.75804375389941Q1287.5444219271449 193.8980437538994 1287.5444219271449 190.77804375389942V154.2980437538994Q1284.904421927145 158.73804375389943 1282.384421927145 162.81804375389942Q1279.8644219271448 166.8980437538994 1277.5844219271448 169.8980437538994Q1276.0244219271449 172.17804375389943 1273.0844219271448 172.65804375389942Q1270.144421927145 173.1380437538994 1267.6244219271448 171.33804375389943Q1265.464421927145 169.8980437538994 1265.1644219271448 167.1380437538994Q1264.8644219271448 164.37804375389942 1266.664421927145 162.33804375389943Q1268.8244219271448 159.5780437538994 1271.6444219271448 155.55804375389943Q1274.464421927145 151.53804375389942 1277.344421927145 146.9780437538994Q1280.224421927145 142.4180437538994 1282.804421927145 137.9180437538994Q1285.384421927145 133.4180437538994 1287.184421927145 129.81804375389942H1272.0644219271448Q1269.424421927145 129.81804375389942 1267.6244219271448 127.95804375389942Q1265.8244219271448 126.09804375389942 1265.8244219271448 123.45804375389942Q1265.8244219271448 120.81804375389942 1267.6244219271448 118.95804375389942Q1269.424421927145 117.09804375389942 1272.0644219271448 117.09804375389942H1287.5444219271449V107.13804375389942Q1284.3044219271449 107.85804375389942 1281.1844219271447 108.45804375389942Q1278.0644219271448 109.05804375389941 1275.184421927145 109.53804375389942Q1271.464421927145 110.01804375389942 1269.484421927145 108.63804375389941Q1267.504421927145 107.25804375389941 1266.904421927145 104.61804375389941Q1266.424421927145 101.97804375389941 1267.924421927145 99.87804375389942Q1269.424421927145 97.77804375389942 1272.7844219271449 97.29804375389942Q1277.944421927145 96.45804375389942 1284.5444219271449 95.07804375389941Q1291.144421927145 93.69804375389941 1297.504421927145 91.95804375389942Q1303.8644219271448 90.21804375389942 1308.424421927145 88.53804375389942Q1311.664421927145 87.33804375389941 1314.1244219271448 88.41804375389941Q1316.5844219271448 89.49804375389942 1317.424421927145 92.25804375389941Q1318.384421927145 95.01804375389942 1317.1244219271448 97.17804375389942Q1315.8644219271448 99.33804375389941 1313.1044219271448 100.29804375389942Q1310.704421927145 101.13804375389942 1307.6444219271448 101.97804375389941Q1304.5844219271448 102.81804375389942 1301.3444219271448 103.77804375389942V117.09804375389942H1314.424421927145Q1317.0644219271448 117.09804375389942 1318.924421927145 118.95804375389942Q1320.7844219271449 120.81804375389942 1320.7844219271449 123.45804375389942Q1320.7844219271449 126.09804375389942 1318.924421927145 127.95804375389942Q1317.0644219271448 129.81804375389942 1314.424421927145 129.81804375389942H1301.3444219271448V133.65804375389942Q1302.664421927145 134.9780437538994 1304.764421927145 137.1380437538994Q1306.8644219271448 139.29804375389944 1309.2044219271447 141.6380437538994Q1311.5444219271449 143.9780437538994 1313.6444219271448 145.9580437538994Q1315.744421927145 147.93804375389942 1316.944421927145 149.0180437538994Q1318.984421927145 150.81804375389942 1319.1044219271448 153.3380437538994Q1319.224421927145 155.8580437538994 1317.5444219271449 157.77804375389942Q1316.704421927145 158.61804375389943 1316.224421927145 158.9780437538994Q1317.3044219271449 158.49804375389942 1318.144421927145 158.37804375389942Q1324.144421927145 157.4180437538994 1332.724421927145 155.9180437538994Q1341.3044219271449 154.4180437538994 1349.8244219271448 152.73804375389943V93.09804375389942Q1349.8244219271448 89.97804375389941 1351.864421927145 88.05804375389943Q1353.904421927145 86.13804375389942 1356.7844219271449 86.13804375389942Q1359.664421927145 86.13804375389942 1361.764421927145 88.05804375389943Q1363.8644219271448 89.97804375389941 1363.8644219271448 93.09804375389942V149.8580437538994Q1366.264421927145 149.37804375389942 1368.484421927145 148.8980437538994Q1370.704421927145 148.4180437538994 1372.504421927145 148.05804375389943Q1375.384421927145 147.33804375389943 1377.5444219271449 148.65804375389942Q1379.704421927145 149.9780437538994 1380.184421927145 152.73804375389943Q1380.7844219271449 155.8580437538994 1379.2844219271449 157.8380437538994Q1377.7844219271449 159.81804375389942 1375.0244219271449 160.4180437538994Q1372.744421927145 160.8980437538994 1369.864421927145 161.55804375389943Q1366.984421927145 162.21804375389942 1363.8644219271448 162.81804375389942V190.65804375389942Q1363.8644219271448 193.77804375389942 1361.764421927145 195.6980437538994Q1359.664421927145 197.61804375389943 1356.7844219271449 197.61804375389943Q1353.904421927145 197.61804375389943 1351.864421927145 195.6980437538994Q1349.8244219271448 193.77804375389942 1349.8244219271448 190.65804375389942V165.81804375389942Q1341.904421927145 167.37804375389942 1334.224421927145 168.87804375389942Q1326.5444219271449 170.37804375389942 1320.664421927145 171.33804375389943Q1317.5444219271449 171.81804375389942 1315.2044219271447 170.49804375389942Q1312.8644219271448 169.17804375389943 1312.264421927145 165.93804375389942Q1311.5444219271449 161.7380437538994 1314.904421927145 159.5780437538994Q1313.224421927145 160.2980437538994 1311.244421927145 159.99804375389942Q1309.264421927145 159.6980437538994 1307.944421927145 158.37804375389942Q1305.424421927145 155.8580437538994 1301.3444219271448 150.81804375389942V190.77804375389942Q1301.3444219271448 193.8980437538994 1299.3044219271449 195.75804375389941Q1297.264421927145 197.61804375389943 1294.384421927145 197.61804375389943ZM1334.8244219271448 118.89804375389942Q1333.6244219271448 117.81804375389942 1331.5244219271449 116.13804375389941Q1329.424421927145 114.45804375389942 1327.324421927145 112.77804375389942Q1325.224421927145 111.09804375389942 1323.7844219271449 110.01804375389942Q1321.744421927145 108.45804375389942 1321.5644219271448 105.75804375389941Q1321.384421927145 103.05804375389943 1323.0644219271448 101.01804375389942Q1324.984421927145 98.85804375389942 1327.684421927145 98.67804375389943Q1330.384421927145 98.49804375389942 1332.664421927145 100.17804375389942Q1334.224421927145 101.25804375389941 1336.384421927145 102.99804375389942Q1338.5444219271449 104.73804375389942 1340.6444219271448 106.41804375389941Q1342.744421927145 108.09804375389942 1343.8244219271448 109.05804375389941Q1346.1044219271448 110.97804375389941 1346.1644219271448 113.73804375389942Q1346.224421927145 116.49804375389942 1344.184421927145 118.77804375389942Q1342.384421927145 120.57804375389942 1339.744421927145 120.69804375389941Q1337.1044219271448 120.81804375389942 1334.8244219271448 118.89804375389942ZM1330.264421927145 146.37804375389942Q1329.0644219271448 145.29804375389944 1326.964421927145 143.61804375389943Q1324.8644219271448 141.93804375389942 1322.764421927145 140.25804375389941Q1320.664421927145 138.5780437538994 1319.224421927145 137.61804375389943Q1317.0644219271448 136.05804375389943 1316.884421927145 133.35804375389944Q1316.704421927145 130.65804375389942 1318.384421927145 128.61804375389943Q1320.3044219271449 126.33804375389943 1323.004421927145 126.15804375389942Q1325.704421927145 125.97804375389941 1327.984421927145 127.65804375389942Q1329.424421927145 128.73804375389943 1331.6444219271448 130.47804375389944Q1333.8644219271448 132.21804375389942 1335.964421927145 133.8380437538994Q1338.0644219271448 135.4580437538994 1339.144421927145 136.4180437538994Q1341.424421927145 138.33804375389943 1341.5444219271449 141.09804375389942Q1341.664421927145 143.8580437538994 1339.6244219271448 146.1380437538994Q1337.8244219271448 148.05804375389943 1335.1844219271447 148.17804375389943Q1332.5444219271449 148.2980437538994 1330.264421927145 146.37804375389942Z" fill="#C56A38"/><path d="M318.6620043933834 265.34362992331995Q315.9649931027038 265.34362992331995 315.9649931027038 262.58923541368966V230.11033348763254H306.0950794431953Q303.340684933565 230.11033348763254 303.340684933565 227.64285507275542Q303.340684933565 225.1753766578783 306.0950794431953 225.1753766578783H331.11416290567036Q333.81117419635 225.1753766578783 333.81117419635 227.64285507275542Q333.81117419635 230.11033348763254 331.11416290567036 230.11033348763254H321.2442492461618V262.58923541368966Q321.2442492461618 265.34362992331995 318.6620043933834 265.34362992331995ZM357.28091074715803 265.9174621128263Q351.42782241419366 265.9174621128263 347.640529963452 262.6466186326403Q346.55024880339005 261.8432535673315 346.52155719391476 260.8677388451707Q346.4928655844394 259.89222412301 347.2962306497482 259.0888590577012Q348.0995957150571 258.28549399239233 348.96034399931654 258.34287721134297Q349.821092283576 258.4002604302936 350.911373443638 259.14624227665183Q353.4936182964164 261.3841878157264 357.51044362296057 261.3841878157264Q360.0353052567883 261.3841878157264 361.52726894950473 260.46605631251634Q363.01923264222114 259.5479248093062 363.01923264222114 257.4247457081329Q363.01923264222114 255.70324913961394 361.4698857305541 254.8711924648298Q359.92053881888705 254.03913579004566 355.9610967112935 253.29315394368746Q353.37885185851513 252.77670497313179 351.34174758576773 251.9159566888723Q349.30464331302034 251.05520840461284 348.0995957150571 249.41978666451985Q346.89454811709385 247.78436492442688 346.89454811709385 245.14473685269786Q346.89454811709385 242.6198752188701 348.271745371909 240.81230382192524Q349.64894262672414 239.00473242498035 351.91557977527407 238.0292177028196Q354.18221692382394 237.0537029806589 356.93661143345423 237.0537029806589Q361.9289514821591 237.0537029806589 364.97026208654256 239.69333105238792Q366.1179264655552 240.3819296797955 366.2613845129317 241.32875279248088Q366.40484256030834 242.2755759051663 365.65886071395016 243.07894097047514Q364.9128788675919 243.99707247368525 364.0521305833324 243.93968925473462Q363.191382299073 243.88230603578398 362.0437179200604 243.30847384627768Q360.1500716946896 241.64436049670937 356.99399465240487 241.64436049670937Q354.52651623752774 241.64436049670937 353.3214686395645 242.6485668283454Q352.11642104160126 243.65277315998145 352.11642104160126 245.0299704147966Q352.11642104160126 246.63670054541427 353.4936182964164 247.38268239177248Q354.87081555123154 248.12866423813068 358.4859583451213 248.9320293034395Q361.35511929265283 249.56324471189646 363.56437322225213 250.5961426530078Q365.77362715185143 251.62904059411915 367.00736635929 253.29315394368746Q368.24110556672855 254.95726729325574 368.24110556672855 257.5968953649848Q368.24110556672855 261.5563374725783 365.22848657182044 263.7368997927023Q362.2158675769123 265.9174621128263 357.28091074715803 265.9174621128263ZM391.30915958488214 265.9748453317769Q386.9480349446342 265.9748453317769 384.2510236539545 263.1917592126713Q381.55401236327486 260.4086730935657 381.55401236327486 255.12941695010764V240.49669611769676Q381.55401236327486 237.7996848270171 384.0788739971027 237.7996848270171Q386.66111884988106 237.7996848270171 386.66111884988106 240.49669611769676V254.0965190089963Q386.66111884988106 257.6542785839354 388.2678489804987 259.4618499808803Q389.87457911111636 261.26942137782515 392.3994407449441 261.26942137782515Q395.3259849114263 261.26942137782515 397.1909395273218 259.347083542979Q399.0558941432173 257.4247457081329 399.0558941432173 254.15390222794693V240.49669611769676Q399.0558941432173 237.7996848270171 401.63813899599575 237.7996848270171Q404.1630006298235 237.7996848270171 404.1630006298235 240.49669611769676V262.58923541368966Q404.1630006298235 265.34362992331995 401.8676718717982 265.34362992331995Q399.572343113773 265.34362992331995 399.4001934569211 263.9090494495542L399.28542701901983 261.78587034838085Q398.0803794210566 263.50736691689974 396.0432751483092 264.74110612433833Q394.0061708755618 265.9748453317769 391.30915958488214 265.9748453317769ZM416.8446920179129 277.22195624610055Q415.9265605147028 277.22195624610055 414.7788961356902 277.04980658924865Q412.36880093976373 276.76289049449554 412.36880093976373 274.12326242276646Q412.36880093976373 271.71316722683997 414.03291428933204 272.00008332159314Q414.49198004093705 272.05746654054377 414.9797374020174 272.08615815001906Q415.46749476309776 272.1148497594944 415.9265605147028 272.1148497594944Q418.5088053674812 272.1148497594944 419.45562848016664 270.9958769899571Q420.40245159285206 269.8769042204198 420.40245159285206 267.00774327288826V240.49669611769676Q420.40245159285206 237.7996848270171 422.98469644563045 237.7996848270171Q425.5095580794582 237.7996848270171 425.5095580794582 240.49669611769676V267.00774327288826Q425.5095580794582 272.5739155110995 423.4437621972355 274.89793587860004Q421.37796631501277 277.22195624610055 416.8446920179129 277.22195624610055ZM422.98469644563045 232.63519512146033Q421.55011597186467 232.63519512146033 420.5459096402286 231.6309887898243Q419.54170330859256 230.62678245818825 419.54170330859256 229.19220198442247Q419.54170330859256 227.7576215106567 420.5459096402286 226.75341517902064Q421.55011597186467 225.7492088473846 422.98469644563045 225.7492088473846Q424.3618937004456 225.7492088473846 425.3661000320816 226.75341517902064Q426.37030636371765 227.7576215106567 426.37030636371765 229.19220198442247Q426.37030636371765 230.62678245818825 425.3661000320816 231.6309887898243Q424.3618937004456 232.63519512146033 422.98469644563045 232.63519512146033ZM445.6510679311297 265.34362992331995Q443.0688230783513 265.34362992331995 443.0688230783513 262.58923541368966V240.49669611769676Q443.0688230783513 237.7996848270171 445.6510679311297 237.7996848270171Q448.17592956495747 237.7996848270171 448.17592956495747 240.49669611769676V262.58923541368966Q448.17592956495747 265.34362992331995 445.6510679311297 265.34362992331995ZM445.5936847121791 232.63519512146033Q444.1591042384133 232.63519512146033 443.15489790677725 231.6309887898243Q442.1506915751412 230.62678245818825 442.1506915751412 229.19220198442247Q442.1506915751412 227.7576215106567 443.15489790677725 226.75341517902064Q444.1591042384133 225.7492088473846 445.5936847121791 225.7492088473846Q446.9708819669942 225.7492088473846 447.9750882986302 226.75341517902064Q448.9792946302663 227.7576215106567 448.9792946302663 229.19220198442247Q448.9792946302663 230.62678245818825 447.9750882986302 231.6309887898243Q446.9708819669942 232.63519512146033 445.5936847121791 232.63519512146033ZM476.3510900697172 265.9748453317769Q472.56379761897557 265.9748453317769 469.6085618430181 264.2246571537827Q466.6533260670606 262.4744689757884 464.960521108017 259.23231710507775Q463.26771614897336 255.9901652343671 463.26771614897336 251.5716573751685Q463.26771614897336 247.0957662970193 464.960521108017 243.85361442630867Q466.6533260670606 240.61146255559802 469.6085618430181 238.86127437760376Q472.56379761897557 237.11108619960953 476.3510900697172 237.11108619960953Q478.875951703545 237.11108619960953 480.970439195243 238.2013673596715Q483.064926686941 239.2916485197335 484.4995071607068 241.3000611830056V226.89687322639722Q484.4995071607068 224.19986193571756 487.0243687945346 224.19986193571756Q489.606613647313 224.19986193571756 489.606613647313 226.89687322639722V262.58923541368966Q489.606613647313 265.34362992331995 487.36866810823835 265.34362992331995Q485.07333935021313 265.34362992331995 485.0159561312625 264.0811991064061L484.90118969336123 261.3841878157264Q483.46660921959545 263.50736691689974 481.2573552899962 264.74110612433833Q479.0481013603969 265.9748453317769 476.3510900697172 265.9748453317769ZM476.5232397265691 261.26942137782515Q480.0236160825576 261.26942137782515 482.2902532311075 258.68717652504677Q484.55689037965743 256.1049316722684 484.55689037965743 251.5716573751685Q484.55689037965743 246.98099985911804 482.2902532311075 244.39875500633966Q480.0236160825576 241.81651015356127 476.5232397265691 241.81651015356127Q473.02286337058064 241.81651015356127 470.72753461255536 244.39875500633966Q468.43220585453014 246.98099985911804 468.43220585453014 251.5716573751685Q468.43220585453014 256.1049316722684 470.72753461255536 258.68717652504677Q473.02286337058064 261.26942137782515 476.5232397265691 261.26942137782515ZM516.9210258678133 265.9748453317769Q513.1337334170717 265.9748453317769 510.1784976411142 264.167273934832Q507.2232618651567 262.35970253788713 505.53045690611305 259.08885905770114Q503.83765194706945 255.8180155775152 503.83765194706945 251.5142741562179Q503.83765194706945 247.21053273492058 505.53045690611305 243.96838086420993Q507.2232618651567 240.7262289934993 510.1784976411142 238.9186575965544Q513.1337334170717 237.11108619960953 516.9210258678133 237.11108619960953Q520.7083183185549 237.11108619960953 523.6635540945124 238.9186575965544Q526.61878987047 240.7262289934993 528.3115948295135 243.96838086420993Q530.0043997885572 247.21053273492058 530.0043997885572 251.5142741562179Q530.0043997885572 255.8180155775152 528.3115948295135 259.08885905770114Q526.61878987047 262.35970253788713 523.6635540945124 264.167273934832Q520.7083183185549 265.9748453317769 516.9210258678133 265.9748453317769ZM516.9210258678133 261.26942137782515Q520.4214022238018 261.26942137782515 522.6306561534011 258.6584849155714Q524.8399100830004 256.04754845331775 524.8399100830004 251.5142741562179Q524.8399100830004 246.98099985911804 522.6306561534011 244.39875500633966Q520.4214022238018 241.81651015356127 516.9210258678133 241.81651015356127Q513.4206495118249 241.81651015356127 511.2113955822256 244.39875500633966Q509.0021416526262 246.98099985911804 509.0021416526262 251.5142741562179Q509.0021416526262 256.04754845331775 511.2113955822256 258.6584849155714Q513.4206495118249 261.26942137782515 516.9210258678133 261.26942137782515ZM592.3799587878929 266.2043782075794Q586.9859362065336 266.2043782075794 582.7682696136621 263.5647501358504Q578.5506030207908 260.92512206412135 576.1405078248644 256.1910065006943Q573.7304126289379 251.45689093726727 573.7304126289379 245.2021200716485Q573.7304126289379 238.88996598707908 576.1405078248644 234.18454203312734Q578.5506030207908 229.47911807917563 582.7682696136621 226.8394900074466Q586.9859362065336 224.19986193571756 592.3799587878929 224.19986193571756Q595.8803351438813 224.19986193571756 598.9216457482648 225.23275987682894Q601.9629563526482 226.26565781794028 604.3156683296241 228.1019208243605Q605.4059494896861 228.84790267071867 605.4633327086367 229.85210900235472Q605.5207159275874 230.85631533399075 604.7173508622785 231.8318300561515Q603.9139857969697 232.86472799726283 602.9958542937595 232.89341960673815Q602.0777227905495 232.92211121621347 600.930058411537 232.1761293698553Q597.3722988365978 229.421734860225 592.3799587878929 229.421734860225Q588.3631334613488 229.421734860225 585.4078976853912 231.40145591402177Q582.4526619094337 233.38117696781853 580.8172401693407 236.93893654275763Q579.1818184292478 240.49669611769676 579.1818184292478 245.2021200716485Q579.1818184292478 249.90754402560023 580.8172401693407 253.46530360053936Q582.4526619094337 257.02306317547846 585.4078976853912 259.03147583875057Q588.3631334613488 261.0398885020226 592.3799587878929 261.0398885020226Q595.2491197354244 261.0398885020226 597.2862240081718 260.49474792199163Q599.3233282809192 259.94960734196064 600.9874416304875 258.9167094008493V248.81726286553825H596.2820176765358Q593.5276231669055 248.81726286553825 593.5276231669055 246.3497844506611Q593.5276231669055 243.88230603578398 596.2820176765358 243.88230603578398H603.6270697022165Q606.3814642118468 243.88230603578398 606.3814642118468 246.63670054541427V260.1791402177632Q606.3814642118468 261.26942137782515 606.037164898143 262.0154032241834Q605.6928655844392 262.76138507054156 604.8321173001798 263.163067603196Q602.6515549800558 264.36811520115924 599.5528611567217 265.2862467043693Q596.4541673333877 266.2043782075794 592.3799587878929 266.2043782075794ZM629.9085839816055 265.802695674925Q625.7196089982094 265.9174621128263 622.9939060980545 263.8803578400789Q620.2682031978995 261.8432535673315 620.2682031978995 257.99857789763917Q620.2682031978995 255.18680016905827 622.0757745948445 253.12100428683556Q623.8833459917893 251.05520840461284 626.7238153298455 249.87885241612491Q629.5642846679017 248.702496427637 632.6055952722851 248.702496427637Q634.3844750597547 248.58772998973572 635.8764387524711 249.01810413186547Q637.3684024451875 249.4484782739952 638.4586836052495 250.251843339304V246.80885020226617Q638.4586836052495 243.59538994103082 637.1101779599096 242.6198752188701Q635.7616723145699 241.64436049670937 632.9498945859889 241.64436049670937Q631.1710147985194 241.64436049670937 629.1912937447225 242.13211785778975Q627.2115726909258 242.6198752188701 625.4900761224069 243.42324028417895Q624.2850285244436 243.88230603578398 623.4242802401842 243.7388479884074Q622.5635319559248 243.59538994103082 621.9896997664184 242.67725843782074Q621.4158675769121 241.70174371566 621.7314752811405 240.81230382192524Q622.047082985369 239.92286392819045 623.2521305833322 239.40641495763478Q625.3753096845056 238.3735170165234 627.9288629278087 237.74230160806647Q630.4824161711118 237.11108619960953 632.9498945859889 237.11108619960953Q638.2291507294469 237.11108619960953 640.8113955822253 239.20557369130756Q643.3936404350037 241.3000611830056 643.3936404350037 246.80885020226617V260.6382059693682Q643.3936404350037 261.5563374725783 643.5370984823803 261.81456195785614Q643.6805565297569 262.07278644313396 644.2543887192633 262.24493609998586Q644.9429873466707 262.4744689757884 645.7463524119796 262.61792702316495Q646.5497174772885 262.76138507054156 646.5497174772885 263.22045082214663Q646.5497174772885 265.1140970475174 644.5986880329671 265.51577958017185Q643.3362572160531 265.802695674925 642.3033592749417 265.802695674925Q640.4670962685216 265.802695674925 639.6637312032128 265.1140970475175Q638.860366137904 264.4254984201099 638.5734500431507 262.6466186326403Q637.0241031314837 264.19596554430734 634.6713911545078 264.9419473906655Q632.318679177532 265.68792923702375 629.9085839816055 265.802695674925ZM629.9659672005561 261.26942137782515Q632.3760623964827 261.2120381588745 634.3557834502794 260.55213114094227Q636.3355045040762 259.89222412301 637.4831688830889 258.6584849155714Q638.6308332621014 257.4247457081329 638.5160668242002 255.70324913961394Q638.4013003862989 254.0965190089963 636.8806450841071 253.40792038158872Q635.3599897819154 252.71932175418115 633.0072778049396 252.83408819208242Q630.8840987037662 252.89147141103305 629.1052189162966 253.6087616479159Q627.326339128827 254.3260518847988 626.2647495782404 255.47371626381144Q625.2031600276538 256.6213806428241 625.2031600276538 258.0559611165898Q625.2605432466044 259.6626912472075 626.5229740635182 260.49474792199163Q627.7854048804321 261.3268045967758 629.9659672005561 261.26942137782515ZM657.2803794210564 277.22195624610055Q656.3622479178464 277.22195624610055 655.2145835388337 277.04980658924865Q652.8044883429072 276.76289049449554 652.8044883429072 274.12326242276646Q652.8044883429072 271.71316722683997 654.4686016924755 272.00008332159314Q654.9276674440806 272.05746654054377 655.4154248051609 272.08615815001906Q655.9031821662413 272.1148497594944 656.3622479178464 272.1148497594944Q658.9444927706247 272.1148497594944 659.8913158833102 270.9958769899571Q660.8381389959956 269.8769042204198 660.8381389959956 267.00774327288826V240.49669611769676Q660.8381389959956 237.7996848270171 663.4203838487739 237.7996848270171Q665.9452454826016 237.7996848270171 665.9452454826016 240.49669611769676V267.00774327288826Q665.9452454826016 272.5739155110995 663.879449600379 274.89793587860004Q661.8136537181563 277.22195624610055 657.2803794210564 277.22195624610055ZM663.4203838487739 232.63519512146033Q661.9858033750081 232.63519512146033 660.9815970433722 231.6309887898243Q659.9773907117361 230.62678245818825 659.9773907117361 229.19220198442247Q659.9773907117361 227.7576215106567 660.9815970433722 226.75341517902064Q661.9858033750081 225.7492088473846 663.4203838487739 225.7492088473846Q664.7975811035891 225.7492088473846 665.8017874352252 226.75341517902064Q666.8059937668612 227.7576215106567 666.8059937668612 229.19220198442247Q666.8059937668612 230.62678245818825 665.8017874352252 231.6309887898243Q664.7975811035891 232.63519512146033 663.4203838487739 232.63519512146033ZM691.8824604482869 265.9748453317769Q687.5213358080389 265.9748453317769 684.8243245173592 263.1917592126713Q682.1273132266796 260.4086730935657 682.1273132266796 255.12941695010764V240.49669611769676Q682.1273132266796 237.7996848270171 684.6521748605073 237.7996848270171Q687.2344197132858 237.7996848270171 687.2344197132858 240.49669611769676V254.0965190089963Q687.2344197132858 257.6542785839354 688.8411498439034 259.4618499808803Q690.4478799745211 261.26942137782515 692.9727416083489 261.26942137782515Q695.899285774831 261.26942137782515 697.7642403907265 259.347083542979Q699.629195006622 257.4247457081329 699.629195006622 254.15390222794693V240.49669611769676Q699.629195006622 237.7996848270171 702.2114398594005 237.7996848270171Q704.7363014932282 237.7996848270171 704.7363014932282 240.49669611769676V262.58923541368966Q704.7363014932282 265.34362992331995 702.440972735203 265.34362992331995Q700.1456439771778 265.34362992331995 699.9734943203258 263.9090494495542L699.8587278824245 261.78587034838085Q698.6536802844613 263.50736691689974 696.616576011714 264.74110612433833Q694.5794717389665 265.9748453317769 691.8824604482869 265.9748453317769ZM723.0989315574301 265.34362992331995Q720.5166867046516 265.34362992331995 720.5166867046516 262.58923541368966V240.49669611769676Q720.5166867046516 237.7996848270171 722.8693986816276 237.7996848270171Q725.1647274396528 237.7996848270171 725.3368770965046 239.17688208183225L725.4516435344059 241.58697727775873Q726.369775037616 239.63594783343729 728.3494960914128 238.3735170165234Q730.3292171452096 237.11108619960953 732.9114619979879 237.11108619960953Q735.8953893834207 237.11108619960953 737.9611852656435 238.48828345442467Q740.0269811478662 239.86548070923982 740.9451126510762 242.39034234306757Q741.9780105921876 240.09501358504235 744.0724980838856 238.60304989232594Q746.1669855755837 237.11108619960953 749.1509129610165 237.11108619960953Q753.3398879444126 237.11108619960953 755.8073663592897 239.86548070923982Q758.2748447741668 242.6198752188701 758.2748447741668 247.89913136232815V262.58923541368966Q758.2748447741668 265.34362992331995 755.6925999213884 265.34362992331995Q753.0529718496593 265.34362992331995 753.0529718496593 262.58923541368966V248.9320293034395Q753.0529718496593 245.31688650954976 751.7044662043195 243.56669833155553Q750.3559605589797 241.81651015356127 748.0032485820038 241.81651015356127Q745.191470853423 241.81651015356127 743.55604911333 243.88230603578398Q741.920627373237 245.9481019180067 741.920627373237 249.16156217924203V262.58923541368966Q741.920627373237 265.34362992331995 739.3957657394093 265.34362992331995Q736.8135208866308 265.34362992331995 736.8135208866308 262.58923541368966V248.9320293034395Q736.8135208866308 245.31688650954976 735.4363236318156 243.56669833155553Q734.0591263770006 241.81651015356127 731.7064144000246 241.81651015356127Q728.8946366714438 241.81651015356127 727.287906540826 243.9109976452593Q725.6811764102084 246.00548513695733 725.6811764102084 249.1041789602914V262.58923541368966Q725.6811764102084 265.34362992331995 723.0989315574301 265.34362992331995ZM782.2610302955305 265.802695674925Q778.0720553121345 265.9174621128263 775.3463524119795 263.8803578400789Q772.6206495118246 261.8432535673315 772.6206495118246 257.99857789763917Q772.6206495118246 255.18680016905827 774.4282209087694 253.12100428683556Q776.2357923057143 251.05520840461284 779.0762616437705 249.87885241612491Q781.9167309818267 248.702496427637 784.9580415862101 248.702496427637Q786.7369213736797 248.58772998973572 788.2288850663961 249.01810413186547Q789.7208487591125 249.4484782739952 790.8111299191745 250.251843339304V246.80885020226617Q790.8111299191745 243.59538994103082 789.4626242738348 242.6198752188701Q788.1141186284949 241.64436049670937 785.3023408999139 241.64436049670937Q783.5234611124445 241.64436049670937 781.5437400586477 242.13211785778975Q779.5640190048509 242.6198752188701 777.8425224363319 243.42324028417895Q776.6374748383687 243.88230603578398 775.7767265541092 243.7388479884074Q774.9159782698498 243.59538994103082 774.3421460803435 242.67725843782074Q773.7683138908371 241.70174371566 774.0839215950656 240.81230382192524Q774.399529299294 239.92286392819045 775.6045768972573 239.40641495763478Q777.7277559984307 238.3735170165234 780.2813092417338 237.74230160806647Q782.8348624850369 237.11108619960953 785.3023408999139 237.11108619960953Q790.581597043372 237.11108619960953 793.1638418961504 239.20557369130756Q795.7460867489287 241.3000611830056 795.7460867489287 246.80885020226617V260.6382059693682Q795.7460867489287 261.5563374725783 795.8895447963054 261.81456195785614Q796.033002843682 262.07278644313396 796.6068350331883 262.24493609998586Q797.2954336605958 262.4744689757884 798.0987987259047 262.61792702316495Q798.9021637912135 262.76138507054156 798.9021637912135 263.22045082214663Q798.9021637912135 265.1140970475174 796.9511343468921 265.51577958017185Q795.6887035299782 265.802695674925 794.6558055888668 265.802695674925Q792.8195425824466 265.802695674925 792.0161775171377 265.1140970475175Q791.212812451829 264.4254984201099 790.9258963570758 262.6466186326403Q789.3765494454087 264.19596554430734 787.0238374684329 264.9419473906655Q784.671125491457 265.68792923702375 782.2610302955305 265.802695674925ZM782.3184135144811 261.26942137782515Q784.7285087104077 261.2120381588745 786.7082297642045 260.55213114094227Q788.6879508180012 259.89222412301 789.8356151970138 258.6584849155714Q790.9832795760265 257.4247457081329 790.8685131381252 255.70324913961394Q790.7537467002239 254.0965190089963 789.2330913980322 253.40792038158872Q787.7124360958404 252.71932175418115 785.3597241188646 252.83408819208242Q783.2365450176912 252.89147141103305 781.4576652302217 253.6087616479159Q779.6787854427521 254.3260518847988 778.6171958921655 255.47371626381144Q777.5556063415788 256.6213806428241 777.5556063415788 258.0559611165898Q777.6129895605294 259.6626912472075 778.8754203774433 260.49474792199163Q780.1378511943572 261.3268045967758 782.3184135144811 261.26942137782515ZM815.313764411094 265.34362992331995Q812.7315195583155 265.34362992331995 812.7315195583155 262.58923541368966V240.49669611769676Q812.7315195583155 237.7996848270171 815.4285308489953 237.7996848270171Q816.3466623522053 237.7996848270171 817.0352609796129 238.25875057862214Q817.7238596070205 238.7178163302272 817.7238596070205 239.98024714714109V242.10342624831443Q818.871523986033 239.86548070923982 821.1955443535336 238.48828345442467Q823.5195647210342 237.11108619960953 826.2165760117139 237.11108619960953Q829.7169523677023 237.11108619960953 829.7169523677023 239.92286392819045Q829.7169523677023 241.1279115261537 829.0570453497701 241.67305210618468Q828.3971383318378 242.21819268621567 827.593773266529 242.16080946726504Q827.1920907338746 242.10342624831443 826.6756417633189 242.07473463883912Q826.1591927927632 242.0460430293638 825.5853606032568 242.0460430293638Q822.3719003420215 242.0460430293638 820.1339548029468 244.1405305210618Q817.8960092638723 246.23501801275984 817.8960092638723 249.62062793084706V262.58923541368966Q817.8960092638723 265.34362992331995 815.313764411094 265.34362992331995ZM851.8094916636952 265.9748453317769Q847.4483670234472 265.9748453317769 844.7513557327675 263.1917592126713Q842.0543444420879 260.4086730935657 842.0543444420879 255.12941695010764V240.49669611769676Q842.0543444420879 237.7996848270171 844.5792060759156 237.7996848270171Q847.1614509286941 237.7996848270171 847.1614509286941 240.49669611769676V254.0965190089963Q847.1614509286941 257.6542785839354 848.7681810593117 259.4618499808803Q850.3749111899294 261.26942137782515 852.8997728237572 261.26942137782515Q855.8263169902393 261.26942137782515 857.6912716061348 259.347083542979Q859.5562262220303 257.4247457081329 859.5562262220303 254.15390222794693V240.49669611769676Q859.5562262220303 237.7996848270171 862.1384710748088 237.7996848270171Q864.6633327086365 237.7996848270171 864.6633327086365 240.49669611769676V262.58923541368966Q864.6633327086365 265.34362992331995 862.3680039506113 265.34362992331995Q860.0726751925861 265.34362992331995 859.9005255357341 263.9090494495542L859.7857590978329 261.78587034838085Q858.5807114998696 263.50736691689974 856.5436072271223 264.74110612433833Q854.5065029543748 265.9748453317769 851.8094916636952 265.9748453317769ZM914.7014996335866 265.34362992331995Q912.004488342907 265.34362992331995 912.004488342907 262.58923541368966V227.9297711675086Q912.004488342907 225.1753766578783 914.7014996335866 225.1753766578783H924.3418804172927Q930.654034501862 225.1753766578783 934.9864675326347 227.64285507275542Q939.3189005634074 230.11033348763254 941.5855377119573 234.61491617525706Q943.8521748605071 239.1194988628816 943.8521748605071 245.25950329059913Q943.8521748605071 251.342124499366 941.5855377119573 255.87539879646584Q939.3189005634074 260.4086730935657 934.9864675326347 262.87615150844283Q930.654034501862 265.34362992331995 924.3418804172927 265.34362992331995ZM917.2263612674144 260.4086730935657H923.9975811035889Q928.8177714954419 260.4086730935657 932.0025401472019 258.4863352587196Q935.1873087989619 256.56399742387345 936.7940389295795 253.1496958963109Q938.4007690601973 249.73539436874833 938.4007690601973 245.25950329059913Q938.4007690601973 240.7262289934993 936.7940389295795 237.34061907541206Q935.1873087989619 233.95500915732484 932.0025401472019 232.03267132247868Q928.8177714954419 230.11033348763254 923.9975811035889 230.11033348763254H917.2263612674144ZM969.7893898261924 265.9748453317769Q965.8873309375495 265.9748453317769 962.9034035521166 264.3107319822086Q959.9194761666838 262.6466186326403 958.2553628171156 259.40446676192965Q956.5912494675473 256.162314891219 956.5912494675473 251.5716573751685Q956.5912494675473 247.15314951596994 958.2553628171156 243.9109976452593Q959.9194761666838 240.66884577454866 962.8173287236907 238.8899659870791Q965.7151812806976 237.11108619960953 969.5024737314392 237.11108619960953Q973.2897661821809 237.11108619960953 975.9580858633851 238.9186575965544Q978.6264055445895 240.7262289934993 980.03229440888 243.53800672208018Q981.4381832731705 246.3497844506611 981.4381832731705 249.33371183609393Q981.4381832731705 250.9978251856622 980.7495846457629 251.54296576569322Q980.0609860183553 252.0881063457242 978.7411719824908 252.0881063457242H961.6409727352028Q961.7557391731041 256.67876386177466 963.9649931027034 259.06016744822585Q966.1742470323027 261.44157103467705 969.846773045143 261.44157103467705Q974.207897685391 261.44157103467705 976.4458432244655 257.9411946786886Q977.3639747276757 256.9656799565278 978.1673397929844 256.65007225229937Q978.9707048582933 256.3344645480709 979.8888363615034 256.9656799565278Q980.8643510836641 257.5968953649848 981.0078091310406 258.5724100871455Q981.1512671784172 259.5479248093062 980.2331356752072 260.6955891883188Q978.3394894498364 263.3926004789985 975.7285529875826 264.6837229053877Q973.1176165253289 265.9748453317769 969.7893898261924 265.9748453317769ZM961.9278888299559 247.95651458127878H976.388460005515Q975.9293942539099 244.97258719584596 974.0931312474897 243.13632418942578Q972.2568682410695 241.3000611830056 969.4450905124886 241.3000611830056Q966.4611631270558 241.3000611830056 964.5101336827342 242.9928661420492Q962.5591042384128 244.68567110109282 961.9278888299559 247.95651458127878ZM998.6531489583598 265.34362992331995Q996.0709041055813 265.34362992331995 996.0709041055813 262.58923541368966V240.49669611769676Q996.0709041055813 237.7996848270171 998.4236160825573 237.7996848270171Q1000.8337112784837 237.7996848270171 1000.8910944974343 239.17688208183225L1001.0058609353356 241.35744440195623Q1002.2109085332988 239.63594783343729 1004.2480128060463 238.3735170165234Q1006.2851170787936 237.11108619960953 1008.9247451505227 237.11108619960953Q1013.2858697907707 237.11108619960953 1016.0115726909256 239.89417231871514Q1018.7372755910806 242.67725843782074 1018.7372755910806 247.95651458127878V262.58923541368966Q1018.7372755910806 265.34362992331995 1016.1550307383022 265.34362992331995Q1013.6301691044745 265.34362992331995 1013.6301691044745 262.58923541368966V249.04679574134076Q1013.6301691044745 245.43165294745103 1012.0234389738569 243.62408155050616Q1010.4167088432391 241.81651015356127 1007.8344639904607 241.81651015356127Q1004.9079198239785 241.81651015356127 1003.0716568175583 243.7388479884074Q1001.2353938111381 245.66118582325353 1001.2353938111381 248.87464608448886V262.58923541368966Q1001.2353938111381 265.34362992331995 998.6531489583598 265.34362992331995ZM1045.5352388410251 265.9748453317769Q1041.6331799523823 265.9748453317769 1039.6247672891102 264.4541900295852Q1037.616354625838 262.93353472739346 1037.616354625838 258.62979330609613V242.2755759051663H1034.7471936783065Q1032.050182387627 242.2755759051663 1032.050182387627 240.03763036609172Q1032.050182387627 238.88996598707908 1032.6527061866086 238.3448254070481Q1033.2552299855902 237.7996848270171 1034.7471936783065 237.7996848270171H1037.616354625838V230.62678245818825Q1037.616354625838 227.9297711675086 1040.1985994786166 227.9297711675086Q1042.7234611124443 227.9297711675086 1042.7234611124443 230.62678245818825V237.7996848270171H1048.0027172559023Q1050.699728546582 237.7996848270171 1050.699728546582 240.03763036609172Q1050.699728546582 242.2755759051663 1048.0027172559023 242.2755759051663H1042.7234611124443V257.53951214603416Q1042.7234611124443 259.77745768510874 1043.7276674440805 260.55213114094227Q1044.7318737757164 261.3268045967758 1046.7402864389885 261.3268045967758Q1046.8550528768897 261.3268045967758 1047.0845857526922 261.3268045967758Q1048.6339326643592 261.3268045967758 1049.6668306054708 261.58502908205367Q1050.699728546582 261.8432535673315 1050.699728546582 263.3926004789985Q1050.699728546582 265.1140970475174 1049.1216900254396 265.5444711896472Q1047.5436515042973 265.9748453317769 1045.5352388410251 265.9748453317769ZM1072.6775014046736 265.802695674925Q1068.4885264212776 265.9174621128263 1065.7628235211228 263.8803578400789Q1063.0371206209677 261.8432535673315 1063.0371206209677 257.99857789763917Q1063.0371206209677 255.18680016905827 1064.8446920179126 253.12100428683556Q1066.6522634148573 251.05520840461284 1069.4927327529135 249.87885241612491Q1072.33320209097 248.702496427637 1075.3745126953534 248.702496427637Q1077.153392482823 248.58772998973572 1078.6453561755393 249.01810413186547Q1080.1373198682556 249.4484782739952 1081.2276010283176 250.251843339304V246.80885020226617Q1081.2276010283176 243.59538994103082 1079.8790953829778 242.6198752188701Q1078.530589737638 241.64436049670937 1075.718812009057 241.64436049670937Q1073.9399322215875 241.64436049670937 1071.9602111677907 242.13211785778975Q1069.980490113994 242.6198752188701 1068.258993545475 243.42324028417895Q1067.053945947512 243.88230603578398 1066.1931976632522 243.7388479884074Q1065.3324493789928 243.59538994103082 1064.7586171894866 242.67725843782074Q1064.1847849999804 241.70174371566 1064.500392704209 240.81230382192524Q1064.8160004084373 239.92286392819045 1066.0210480064004 239.40641495763478Q1068.144227107574 238.3735170165234 1070.6977803508769 237.74230160806647Q1073.2513335941799 237.11108619960953 1075.718812009057 237.11108619960953Q1080.998068152515 237.11108619960953 1083.5803130052936 239.20557369130756Q1086.162557858072 241.3000611830056 1086.162557858072 246.80885020226617V260.6382059693682Q1086.162557858072 261.5563374725783 1086.3060159054485 261.81456195785614Q1086.449473952825 262.07278644313396 1087.0233061423314 262.24493609998586Q1087.711904769739 262.4744689757884 1088.5152698350478 262.61792702316495Q1089.3186349003565 262.76138507054156 1089.3186349003565 263.22045082214663Q1089.3186349003565 265.1140970475174 1087.367605456035 265.51577958017185Q1086.1051746391213 265.802695674925 1085.07227669801 265.802695674925Q1083.2360136915897 265.802695674925 1082.4326486262808 265.1140970475175Q1081.629283560972 264.4254984201099 1081.342367466219 262.6466186326403Q1079.793020554552 264.19596554430734 1077.4403085775762 264.9419473906655Q1075.0875966006001 265.68792923702375 1072.6775014046736 265.802695674925ZM1072.7348846236243 261.26942137782515Q1075.1449798195508 261.2120381588745 1077.1247008733476 260.55213114094227Q1079.1044219271444 259.89222412301 1080.2520863061568 258.6584849155714Q1081.3997506851695 257.4247457081329 1081.2849842472683 255.70324913961394Q1081.170217809367 254.0965190089963 1079.6495625071752 253.40792038158872Q1078.1289072049835 252.71932175418115 1075.7761952280077 252.83408819208242Q1073.6530161268345 252.89147141103305 1071.874136339365 253.6087616479159Q1070.0952565518953 254.3260518847988 1069.0336670013085 255.47371626381144Q1067.9720774507218 256.6213806428241 1067.9720774507218 258.0559611165898Q1068.0294606696725 259.6626912472075 1069.2918914865863 260.49474792199163Q1070.5543223035004 261.3268045967758 1072.7348846236243 261.26942137782515ZM1105.730235520237 265.34362992331995Q1103.1479906674588 265.34362992331995 1103.1479906674588 262.58923541368966V226.89687322639722Q1103.1479906674588 224.19986193571756 1105.730235520237 224.19986193571756Q1108.3124803730154 224.19986193571756 1108.3124803730154 226.89687322639722V262.58923541368966Q1108.3124803730154 265.34362992331995 1105.730235520237 265.34362992331995ZM1172.122619846117 266.2043782075794Q1166.6712140458071 266.2043782075794 1162.482239062411 263.622133354801Q1158.293264079015 261.0398885020226 1155.9118604925638 256.33446454807086Q1153.5304569061125 251.62904059411915 1153.5304569061125 245.25950329059913Q1153.5304569061125 238.88996598707908 1155.9118604925638 234.15585042365205Q1158.293264079015 229.421734860225 1162.482239062411 226.81079839797127Q1166.6712140458071 224.19986193571756 1172.122619846117 224.19986193571756Q1176.311594829513 224.19986193571756 1179.7545879665508 225.7492088473846Q1183.1975811035888 227.29855575905165 1185.6650595184658 230.16771670658318Q1186.583191021676 231.14323142874392 1186.2675833174476 232.14743776037994Q1185.951975613219 233.151644092016 1185.0338441100089 233.78285950047294L1184.8043112342064 233.8976259383742Q1184.1730958257494 234.2993084710286 1183.1115062751628 234.21323364260266Q1182.0499167245762 234.1271588141767 1181.131785221366 233.26641052991727Q1177.7461753032787 229.421734860225 1172.122619846117 229.421734860225Q1168.2205609574742 229.421734860225 1165.2653251815166 231.37276430454645Q1162.310089405559 233.3237937488679 1160.6459760559908 236.8528617143317Q1158.9818627064226 240.3819296797955 1158.9818627064226 245.25950329059913Q1158.9818627064226 250.07969368245213 1160.6459760559908 253.6087616479159Q1162.310089405559 257.1378296133797 1165.2653251815166 259.08885905770114Q1168.2205609574742 261.0398885020226 1172.122619846117 261.0398885020226Q1177.6314088653776 261.0398885020226 1181.131785221366 257.19521283233036Q1182.0499167245762 256.3344645480709 1182.9967398372614 256.21969811016965Q1183.943562949947 256.1049316722684 1184.8043112342064 256.56399742387345L1184.9190776721077 256.6213806428241Q1185.8945923942683 257.1378296133797 1186.238891707972 258.1707275544911Q1186.583191021676 259.20362549560247 1185.7224427374165 260.1791402177632Q1183.2549643225393 263.04830116529473 1179.7832795760262 264.62633968643706Q1176.311594829513 266.2043782075794 1172.122619846117 266.2043782075794ZM1204.1424560205692 265.34362992331995Q1201.5602111677908 265.34362992331995 1201.5602111677908 262.58923541368966V226.89687322639722Q1201.5602111677908 224.19986193571756 1204.1424560205692 224.19986193571756Q1206.7247008733475 224.19986193571756 1206.7247008733475 226.89687322639722V262.58923541368966Q1206.7247008733475 265.34362992331995 1204.1424560205692 265.34362992331995ZM1225.948079221809 265.34362992331995Q1223.3658343690304 265.34362992331995 1223.3658343690304 262.58923541368966V240.49669611769676Q1223.3658343690304 237.7996848270171 1225.948079221809 237.7996848270171Q1228.4729408556366 237.7996848270171 1228.4729408556366 240.49669611769676V262.58923541368966Q1228.4729408556366 265.34362992331995 1225.948079221809 265.34362992331995ZM1225.8906960028582 232.63519512146033Q1224.4561155290924 232.63519512146033 1223.4519091974564 231.6309887898243Q1222.4477028658205 230.62678245818825 1222.4477028658205 229.19220198442247Q1222.4477028658205 227.7576215106567 1223.4519091974564 226.75341517902064Q1224.4561155290924 225.7492088473846 1225.8906960028582 225.7492088473846Q1227.2678932576734 225.7492088473846 1228.2720995893096 226.75341517902064Q1229.2763059209456 227.7576215106567 1229.2763059209456 229.19220198442247Q1229.2763059209456 230.62678245818825 1228.2720995893096 231.6309887898243Q1227.2678932576734 232.63519512146033 1225.8906960028582 232.63519512146033ZM1247.6389359851473 265.34362992331995Q1245.056691132369 265.34362992331995 1245.056691132369 262.58923541368966V240.49669611769676Q1245.056691132369 237.7996848270171 1247.4094031093448 237.7996848270171Q1249.8194983052713 237.7996848270171 1249.876881524222 239.17688208183225L1249.9916479621231 241.35744440195623Q1251.1966955600865 239.63594783343729 1253.233799832834 238.3735170165234Q1255.2709041055812 237.11108619960953 1257.9105321773102 237.11108619960953Q1262.271656817558 237.11108619960953 1264.9973597177132 239.89417231871514Q1267.7230626178682 242.67725843782074 1267.7230626178682 247.95651458127878V262.58923541368966Q1267.7230626178682 265.34362992331995 1265.1408177650897 265.34362992331995Q1262.615956131262 265.34362992331995 1262.615956131262 262.58923541368966V249.04679574134076Q1262.615956131262 245.43165294745103 1261.0092260006443 243.62408155050616Q1259.4024958700265 241.81651015356127 1256.8202510172482 241.81651015356127Q1253.893706850766 241.81651015356127 1252.057443844346 243.7388479884074Q1250.2211808379257 245.66118582325353 1250.2211808379257 248.87464608448886V262.58923541368966Q1250.2211808379257 265.34362992331995 1247.6389359851473 265.34362992331995ZM1287.00382418528 265.34362992331995Q1284.4215793325016 265.34362992331995 1284.4215793325016 262.58923541368966V240.49669611769676Q1284.4215793325016 237.7996848270171 1287.00382418528 237.7996848270171Q1289.5286858191077 237.7996848270171 1289.5286858191077 240.49669611769676V262.58923541368966Q1289.5286858191077 265.34362992331995 1287.00382418528 265.34362992331995ZM1286.9464409663294 232.63519512146033Q1285.5118604925635 232.63519512146033 1284.5076541609276 231.6309887898243Q1283.5034478292916 230.62678245818825 1283.5034478292916 229.19220198442247Q1283.5034478292916 227.7576215106567 1284.5076541609276 226.75341517902064Q1285.5118604925635 225.7492088473846 1286.9464409663294 225.7492088473846Q1288.3236382211446 225.7492088473846 1289.3278445527808 226.75341517902064Q1290.3320508844167 227.7576215106567 1290.3320508844167 229.19220198442247Q1290.3320508844167 230.62678245818825 1289.3278445527808 231.6309887898243Q1288.3236382211446 232.63519512146033 1286.9464409663294 232.63519512146033ZM1317.7038463238675 265.9748453317769Q1313.9165538731258 265.9748453317769 1310.9613180971683 264.167273934832Q1308.006082321211 262.35970253788713 1306.3132773621674 259.1175506671765Q1304.6204724031236 255.87539879646584 1304.6204724031236 251.5716573751685Q1304.6204724031236 247.2679159538712 1306.3132773621674 243.99707247368525Q1308.006082321211 240.7262289934993 1310.9613180971683 238.9186575965544Q1313.9165538731258 237.11108619960953 1317.7038463238675 237.11108619960953Q1322.5240367157205 237.11108619960953 1325.9670298527583 240.09501358504235Q1327.0573110128203 240.89837865035116 1326.9712361843945 241.9312765914625Q1326.8851613559684 242.96417453257388 1325.9096466338078 243.65277315998145Q1324.934131911647 244.39875500633966 1324.188150065289 244.28398856843842Q1323.4421682189306 244.16922213053715 1322.294503839918 243.42324028417895Q1320.3434743955966 241.81651015356127 1317.7038463238675 241.81651015356127Q1314.203469967879 241.81651015356127 1311.9942160382798 244.39875500633966Q1309.7849621086805 246.98099985911804 1309.7849621086805 251.5716573751685Q1309.7849621086805 256.1049316722684 1311.9942160382798 258.68717652504677Q1314.203469967879 261.26942137782515 1317.7038463238675 261.26942137782515Q1320.2860911766459 261.26942137782515 1322.2371206209673 259.77745768510874Q1323.2700185620788 259.03147583875057 1324.0733836273876 258.85932618189867Q1324.8767486926963 258.68717652504677 1325.8522634148571 259.3757751524543Q1326.8277781370177 260.12175699881254 1326.9425445749189 261.09727172097325Q1327.0573110128203 262.07278644313396 1326.024413071709 262.93353472739346Q1322.5240367157205 265.9748453317769 1317.7038463238675 265.9748453317769Z" fill="#7A4A2A"/>
</svg>