<svg viewBox="0 0 1780 420" xmlns="http://www.w3.org/2000/svg" font-family="Zen Maru Gothic">
<g transform="translate(118 244)"><path d="M8 34 C -6 4 -12 -22 -6 -56" fill="none" stroke="#FFFFFF" stroke-width="16" stroke-linecap="round"/>
<path d="M0 0 C 16 -22 16 -60 0 -86 C -16 -60 -16 -22 0 0 Z" transform="translate(-34 -6) rotate(-50) scale(0.66)" fill="#FFFFFF" stroke="#FFFFFF" stroke-width="14" stroke-linejoin="round"/><path d="M0 0 C 16 -22 16 -60 0 -86 C -16 -60 -16 -22 0 0 Z" transform="translate(34 -16) rotate(36) scale(0.66)" fill="#FFFFFF" stroke="#FFFFFF" stroke-width="14" stroke-linejoin="round"/><path d="M0 0 C 16 -22 16 -60 0 -86 C -16 -60 -16 -22 0 0 Z" transform="translate(-4 -52) rotate(-8) scale(0.58)" fill="#FFFFFF" stroke="#FFFFFF" stroke-width="14" stroke-linejoin="round"/><path d="M8 34 C -6 4 -12 -22 -6 -56" fill="none" stroke="#4E7A30" stroke-width="7" stroke-linecap="round"/>
<path d="M0 0 C 16 -22 16 -60 0 -86 C -16 -60 -16 -22 0 0 Z" transform="translate(-34 -6) rotate(-50) scale(0.66)" fill="#5E8B3A" stroke="none" stroke-width="0" stroke-linejoin="round"/><path d="M0 0 C 16 -22 16 -60 0 -86 C -16 -60 -16 -22 0 0 Z" transform="translate(34 -16) rotate(36) scale(0.66)" fill="#5E8B3A" stroke="none" stroke-width="0" stroke-linejoin="round"/><path d="M0 0 C 16 -22 16 -60 0 -86 C -16 -60 -16 -22 0 0 Z" transform="translate(-4 -52) rotate(-8) scale(0.58)" fill="#5E8B3A" stroke="none" stroke-width="0" stroke-linejoin="round"/><path d="M0 -6 L0 -78" transform="translate(-34 -6) rotate(-50) scale(0.66)" stroke="#4E7A30" stroke-width="3" fill="none" stroke-linecap="round"/><path d="M0 -6 L0 -78" transform="translate(34 -16) rotate(36) scale(0.66)" stroke="#4E7A30" stroke-width="3" fill="none" stroke-linecap="round"/><path d="M0 -6 L0 -78" transform="translate(-4 -52) rotate(-8) scale(0.58)" stroke="#4E7A30" stroke-width="3" fill="none" stroke-linecap="round"/></g>
<g transform="translate(1662 244) scale(-1 1)"><path d="M8 34 C -6 4 -12 -22 -6 -56" fill="none" stroke="#FFFFFF" stroke-width="16" stroke-linecap="round"/>
<path d="M0 0 C 16 -22 16 -60 0 -86 C -16 -60 -16 -22 0 0 Z" transform="translate(-34 -6) rotate(-50) scale(0.66)" fill="#FFFFFF" stroke="#FFFFFF" stroke-width="14" stroke-linejoin="round"/><path d="M0 0 C 16 -22 16 -60 0 -86 C -16 -60 -16 -22 0 0 Z" transform="translate(34 -16) rotate(36) scale(0.66)" fill="#FFFFFF" stroke="#FFFFFF" stroke-width="14" stroke-linejoin="round"/><path d="M0 0 C 16 -22 16 -60 0 -86 C -16 -60 -16 -22 0 0 Z" transform="translate(-4 -52) rotate(-8) scale(0.58)" fill="#FFFFFF" stroke="#FFFFFF" stroke-width="14" stroke-linejoin="round"/><path d="M8 34 C -6 4 -12 -22 -6 -56" fill="none" stroke="#4E7A30" stroke-width="7" stroke-linecap="round"/>
<path d="M0 0 C 16 -22 16 -60 0 -86 C -16 -60 -16 -22 0 0 Z" transform="translate(-34 -6) rotate(-50) scale(0.66)" fill="#5E8B3A" stroke="none" stroke-width="0" stroke-linejoin="round"/><path d="M0 0 C 16 -22 16 -60 0 -86 C -16 -60 -16 -22 0 0 Z" transform="translate(34 -16) rotate(36) scale(0.66)" fill="#5E8B3A" stroke="none" stroke-width="0" stroke-linejoin="round"/><path d="M0 0 C 16 -22 16 -60 0 -86 C -16 -60 -16 -22 0 0 Z" transform="translate(-4 -52) rotate(-8) scale(0.58)" fill="#5E8B3A" stroke="none" stroke-width="0" stroke-linejoin="round"/><path d="M0 -6 L0 -78" transform="translate(-34 -6) rotate(-50) scale(0.66)" stroke="#4E7A30" stroke-width="3" fill="none" stroke-linecap="round"/><path d="M0 -6 L0 -78" transform="translate(34 -16) rotate(36) scale(0.66)" stroke="#4E7A30" stroke-width="3" fill="none" stroke-linecap="round"/><path d="M0 -6 L0 -78" transform="translate(-4 -52) rotate(-8) scale(0.58)" stroke="#4E7A30" stroke-width="3" fill="none" stroke-linecap="round"/></g>
<text x="890" y="296" font-size="164" font-weight="900" fill="#C5552B" stroke="#FFFFFF" stroke-width="24" stroke-linejoin="round" paint-order="stroke" text-anchor="middle">辻堂がじゅまる歯科</text>
</svg>