<svg viewBox="0 0 880 470" xmlns="http://www.w3.org/2000/svg" font-family="Zen Maru Gothic">
<!-- タグ本体（白フチ＝die-cut + 生成り地） -->
<path d="M 70.0 98.0 Q 70.0 70.0 98.0 70.0 L 662.0 70.0 Q 690.0 70.0 706.6 92.5 L 795.4 212.5 Q 812.0 235.0 795.4 257.5 L 706.6 377.5 Q 690.0 400.0 662.0 400.0 L 98.0 400.0 Q 70.0 400.0 70.0 372.0 Z" fill="#FBF6EA" stroke="#FFFFFF" stroke-width="22" stroke-linejoin="round"/>
<!-- 内枠（オレンジ手描き調・面取り角丸） -->
<path d="M 116.0 138.0 Q 116.0 116.0 138.0 116.0 L 638.0 116.0 Q 660.0 116.0 672.5 134.1 L 729.5 216.9 Q 742.0 235.0 729.5 253.1 L 672.5 335.9 Q 660.0 354.0 638.0 354.0 L 138.0 354.0 Q 116.0 354.0 116.0 332.0 Z" fill="none" stroke="#E8841E" stroke-width="6" stroke-linejoin="round"/>
<!-- ハトメ穴（右上・白抜き＋オレンジリング） -->
<circle cx="772" cy="196" r="17" fill="#FFFFFF" stroke="#E8841E" stroke-width="6"/>
<!-- 葉スプリッグ（白フチ→緑本体） -->
<path d="M252 446 C 214 384 194 332 178 272" fill="none" stroke="#FFFFFF" stroke-width="20" stroke-linecap="round"/>
<path d="M0 0 C 16 -22 16 -60 0 -86 C -16 -60 -16 -22 0 0 Z" transform="translate(150 374) rotate(-44) scale(1)" fill="#FFFFFF" stroke="#FFFFFF" stroke-width="12" stroke-linejoin="round"/><path d="M0 0 C 16 -22 16 -60 0 -86 C -16 -60 -16 -22 0 0 Z" transform="translate(234 356) rotate(36) scale(1)" fill="#FFFFFF" stroke="#FFFFFF" stroke-width="12" stroke-linejoin="round"/><path d="M0 0 C 16 -22 16 -60 0 -86 C -16 -60 -16 -22 0 0 Z" transform="translate(150 312) rotate(-30) scale(0.95)" fill="#FFFFFF" stroke="#FFFFFF" stroke-width="12" stroke-linejoin="round"/><path d="M0 0 C 16 -22 16 -60 0 -86 C -16 -60 -16 -22 0 0 Z" transform="translate(216 300) rotate(28) scale(0.95)" fill="#FFFFFF" stroke="#FFFFFF" stroke-width="12" stroke-linejoin="round"/><path d="M0 0 C 16 -22 16 -60 0 -86 C -16 -60 -16 -22 0 0 Z" transform="translate(180 266) rotate(-4) scale(0.9)" fill="#FFFFFF" stroke="#FFFFFF" stroke-width="12" stroke-linejoin="round"/>
<path d="M252 446 C 214 384 194 332 178 272" fill="none" stroke="#4E7A30" stroke-width="10" stroke-linecap="round"/>
<path d="M0 0 C 16 -22 16 -60 0 -86 C -16 -60 -16 -22 0 0 Z" transform="translate(150 374) rotate(-44) scale(1)" fill="#5E8B3A" stroke="none" stroke-width="0" stroke-linejoin="round"/><path d="M0 0 C 16 -22 16 -60 0 -86 C -16 -60 -16 -22 0 0 Z" transform="translate(234 356) rotate(36) scale(1)" fill="#5E8B3A" stroke="none" stroke-width="0" stroke-linejoin="round"/><path d="M0 0 C 16 -22 16 -60 0 -86 C -16 -60 -16 -22 0 0 Z" transform="translate(150 312) rotate(-30) scale(0.95)" fill="#5E8B3A" stroke="none" stroke-width="0" stroke-linejoin="round"/><path d="M0 0 C 16 -22 16 -60 0 -86 C -16 -60 -16 -22 0 0 Z" transform="translate(216 300) rotate(28) scale(0.95)" fill="#5E8B3A" stroke="none" stroke-width="0" stroke-linejoin="round"/><path d="M0 0 C 16 -22 16 -60 0 -86 C -16 -60 -16 -22 0 0 Z" transform="translate(180 266) rotate(-4) scale(0.9)" fill="#5E8B3A" stroke="none" stroke-width="0" stroke-linejoin="round"/><path d="M0 -6 L0 -78" transform="translate(150 374) rotate(-44) scale(1)" stroke="#4E7A30" stroke-width="3" fill="none" stroke-linecap="round"/><path d="M0 -6 L0 -78" transform="translate(234 356) rotate(36) scale(1)" stroke="#4E7A30" stroke-width="3" fill="none" stroke-linecap="round"/><path d="M0 -6 L0 -78" transform="translate(150 312) rotate(-30) scale(0.95)" stroke="#4E7A30" stroke-width="3" fill="none" stroke-linecap="round"/><path d="M0 -6 L0 -78" transform="translate(216 300) rotate(28) scale(0.95)" stroke="#4E7A30" stroke-width="3" fill="none" stroke-linecap="round"/><path d="M0 -6 L0 -78" transform="translate(180 266) rotate(-4) scale(0.9)" stroke="#4E7A30" stroke-width="3" fill="none" stroke-linecap="round"/>
<!-- 文言（大＝テラコッタ／小＝黒） -->
<text x="476" y="222" font-size="92" font-weight="900" fill="#C5552B" text-anchor="middle">内覧会</text>
<text x="476" y="330" font-size="92" font-weight="900" fill="#C5552B" text-anchor="middle">開催予定</text>
<text x="468" y="392" font-size="40" font-weight="900" fill="#2B2A26" text-anchor="middle">日程は決まり次第お知らせします</text>
</svg>